<svg width="135" height="46" viewBox="0 0 135 46" fill="none" xmlns="http://www.w3.org/2000/svg">
<path fill-rule="evenodd" clip-rule="evenodd" d="M26.8961 22.4715C24.4508 21.0375 22.1751 19.7017 19.7228 18.2629C19.7228 19.2684 19.678 20.1135 19.7534 20.949C19.7722 21.1668 20.1303 21.399 20.3777 21.5427C22.3282 22.6846 24.2788 23.8241 26.2506 24.923C26.7476 25.2007 26.9809 25.5334 26.8984 26.0936C26.8937 26.1248 26.8913 26.1559 26.8984 26.187C27.3437 28.0304 26.2671 28.897 24.8065 29.4739C24.5756 29.5649 24.2081 29.5242 23.989 29.3949C21.0043 27.6665 18.0266 25.9237 15.0701 24.1449C14.8181 23.9941 14.5848 23.568 14.5825 23.2687C14.5495 19.7448 14.5471 16.2209 14.5825 12.6969C14.5848 12.3761 14.8534 11.9739 15.1149 11.7561C16.2951 10.7698 17.4094 10.7554 18.7734 11.6723C21.1527 13.2715 23.6757 14.6552 26.1681 16.0772C26.7335 16.4004 26.9173 16.7691 26.9055 17.3939C26.8701 19.0218 26.8937 20.6497 26.8937 22.4692L26.8961 22.4715Z" fill="#F5F7F9"/>
<path fill-rule="evenodd" clip-rule="evenodd" d="M12.0241 22.3183C12.0241 23.1898 12.0641 23.8601 12.0123 24.5208C11.9652 25.1385 12.2196 25.4592 12.7379 25.7513C15.5836 27.3529 18.4105 28.9928 21.2398 30.6231C21.4401 30.738 21.6238 30.8864 21.9395 31.1066C20.3069 32.1049 18.7875 33.0506 17.2421 33.9531C17.0678 34.056 16.705 33.9746 16.5 33.8526C13.4941 32.0954 10.4952 30.3286 7.51749 28.5259C7.27013 28.3775 7.06518 27.9562 7.04634 27.6497C6.91441 25.239 6.92855 25.2342 9.00162 24.0276C9.94157 23.4818 10.8933 22.9551 12.0217 22.3183H12.0241Z" fill="#F5F7F9"/>
<path fill-rule="evenodd" clip-rule="evenodd" d="M12.0075 13.5707C12.0075 15.6176 12.0145 17.4298 11.9957 19.2421C11.9957 19.3953 11.8685 19.6131 11.7389 19.6874C10.243 20.5516 8.73531 21.3919 7.04387 22.3471C7.04387 20.317 7.03916 18.4856 7.05565 16.6542C7.05565 16.5321 7.18287 16.3621 7.2983 16.2951C8.79185 15.4189 10.2925 14.5594 12.0075 13.5707Z" fill="#F5F7F9"/>
<path d="M40.6273 30V15.4545H49.7466V17.3438H42.8219V21.7756H49.2708V23.6577H42.8219V28.1108H49.8319V30H40.6273ZM54.6312 23.5227V30H52.5076V19.0909H54.546V20.8665H54.6809C54.9319 20.2888 55.3249 19.8248 55.8599 19.4744C56.3997 19.1241 57.0791 18.9489 57.8983 18.9489C58.6416 18.9489 59.2927 19.1051 59.8514 19.4176C60.4101 19.7254 60.8433 20.1847 61.1511 20.7955C61.4589 21.4062 61.6127 22.1615 61.6127 23.0611V30H59.4892V23.3168C59.4892 22.526 59.2832 21.9081 58.8713 21.4631C58.4593 21.0133 57.8935 20.7884 57.1738 20.7884C56.6814 20.7884 56.2434 20.8949 55.8599 21.108C55.4811 21.321 55.1805 21.6335 54.9579 22.0455C54.7401 22.4527 54.6312 22.9451 54.6312 23.5227ZM68.5446 30.2131C67.6639 30.2131 66.8779 29.9882 66.1866 29.5384C65.5001 29.0838 64.9603 28.4375 64.5673 27.5994C64.179 26.7566 63.9849 25.7457 63.9849 24.5668C63.9849 23.3878 64.1814 22.3793 64.5744 21.5412C64.9721 20.7031 65.5166 20.0616 66.2079 19.6165C66.8992 19.1714 67.6828 18.9489 68.5588 18.9489C69.2359 18.9489 69.7804 19.0625 70.1923 19.2898C70.609 19.5123 70.9309 19.7727 71.1582 20.071C71.3902 20.3693 71.5701 20.6321 71.698 20.8594H71.8258V15.4545H73.9494V30H71.8755V28.3026H71.698C71.5701 28.5346 71.3855 28.7997 71.144 29.098C70.9073 29.3963 70.5806 29.6567 70.1639 29.8793C69.7472 30.1018 69.2074 30.2131 68.5446 30.2131ZM69.0133 28.402C69.6241 28.402 70.1402 28.241 70.5616 27.919C70.9877 27.5923 71.3097 27.1402 71.5275 26.5625C71.7501 25.9848 71.8613 25.3125 71.8613 24.5455C71.8613 23.7879 71.7524 23.125 71.5346 22.5568C71.3168 21.9886 70.9972 21.5459 70.5758 21.2287C70.1544 20.9115 69.6336 20.7528 69.0133 20.7528C68.3741 20.7528 67.8414 20.9186 67.4153 21.25C66.9892 21.5814 66.6672 22.0336 66.4494 22.6065C66.2363 23.1795 66.1298 23.8258 66.1298 24.5455C66.1298 25.2746 66.2387 25.9304 66.4565 26.5128C66.6743 27.0952 66.9963 27.5568 67.4224 27.8977C67.8533 28.2339 68.3836 28.402 69.0133 28.402ZM81.682 30.2202C80.6072 30.2202 79.6815 29.9905 78.905 29.5312C78.1332 29.0672 77.5366 28.4162 77.1152 27.5781C76.6986 26.7353 76.4902 25.7481 76.4902 24.6165C76.4902 23.4991 76.6986 22.5142 77.1152 21.6619C77.5366 20.8097 78.1238 20.1444 78.8766 19.6662C79.6342 19.188 80.5196 18.9489 81.5328 18.9489C82.1484 18.9489 82.745 19.0507 83.3226 19.2543C83.9003 19.4579 84.4187 19.7775 84.878 20.2131C85.3373 20.6487 85.6995 21.2145 85.9647 21.9105C86.2298 22.6018 86.3624 23.4422 86.3624 24.4318V25.1847H77.6905V23.5938H84.2814C84.2814 23.035 84.1678 22.5402 83.9405 22.1094C83.7132 21.6738 83.3936 21.3305 82.9817 21.0795C82.5745 20.8286 82.0963 20.7031 81.5471 20.7031C80.9505 20.7031 80.4296 20.8499 79.9846 21.1435C79.5442 21.4323 79.2033 21.8111 78.9618 22.2798C78.7251 22.7438 78.6067 23.2481 78.6067 23.7926V25.0355C78.6067 25.7647 78.7346 26.3849 78.9902 26.8963C79.2507 27.4077 79.6129 27.7983 80.0769 28.0682C80.5409 28.3333 81.083 28.4659 81.7033 28.4659C82.1058 28.4659 82.4727 28.4091 82.8042 28.2955C83.1356 28.1771 83.4221 28.0019 83.6635 27.7699C83.905 27.5379 84.0897 27.2514 84.2175 26.9105L86.2275 27.2727C86.0665 27.8646 85.7776 28.383 85.361 28.8281C84.949 29.2685 84.4306 29.6117 83.8056 29.858C83.1853 30.0994 82.4775 30.2202 81.682 30.2202ZM91.8933 30.2415C91.202 30.2415 90.577 30.1136 90.0183 29.858C89.4596 29.5975 89.0169 29.2211 88.6902 28.7287C88.3682 28.2363 88.2072 27.6326 88.2072 26.9176C88.2072 26.3021 88.3256 25.7955 88.5623 25.3977C88.7991 25 89.1187 24.6851 89.5211 24.4531C89.9236 24.2211 90.3734 24.0459 90.8706 23.9276C91.3677 23.8092 91.8743 23.7192 92.3904 23.6577C93.0439 23.5819 93.5742 23.5204 93.9814 23.473C94.3886 23.4209 94.6845 23.3381 94.8691 23.2244C95.0538 23.1108 95.1461 22.9261 95.1461 22.6705V22.6207C95.1461 22.0005 94.9709 21.5199 94.6206 21.179C94.2749 20.8381 93.7588 20.6676 93.0723 20.6676C92.3573 20.6676 91.7939 20.8262 91.3819 21.1435C90.9747 21.456 90.693 21.804 90.5368 22.1875L88.541 21.733C88.7778 21.0701 89.1234 20.535 89.5779 20.1278C90.0372 19.7159 90.5652 19.4176 91.1618 19.233C91.7583 19.0436 92.3857 18.9489 93.0439 18.9489C93.4795 18.9489 93.9411 19.0009 94.4288 19.1051C94.9212 19.2045 95.3805 19.3892 95.8066 19.6591C96.2375 19.929 96.5903 20.3149 96.8649 20.8168C97.1395 21.3139 97.2768 21.9602 97.2768 22.7557V30H95.2029V28.5085H95.1177C94.9804 28.7831 94.7744 29.053 94.4998 29.3182C94.2252 29.5833 93.8725 29.8035 93.4416 29.9787C93.0107 30.1539 92.4946 30.2415 91.8933 30.2415ZM92.3549 28.5369C92.9421 28.5369 93.444 28.4209 93.8606 28.1889C94.282 27.9569 94.6016 27.6539 94.8194 27.2798C95.042 26.901 95.1532 26.4962 95.1532 26.0653V24.6591C95.0775 24.7348 94.9307 24.8059 94.7129 24.8722C94.4998 24.9337 94.256 24.9882 93.9814 25.0355C93.7067 25.0781 93.4392 25.1184 93.1788 25.1562C92.9184 25.1894 92.7006 25.2178 92.5254 25.2415C92.1135 25.2936 91.737 25.3812 91.3961 25.5043C91.06 25.6274 90.7901 25.8049 90.5865 26.0369C90.3876 26.2642 90.2882 26.5672 90.2882 26.946C90.2882 27.4716 90.4823 27.8693 90.8706 28.1392C91.2588 28.4044 91.7536 28.5369 92.3549 28.5369ZM109.047 19.0909L105.091 30H102.818L98.8553 19.0909H101.135L103.898 27.4858H104.012L106.767 19.0909H109.047ZM115.267 30.2202C114.244 30.2202 113.352 29.9858 112.589 29.517C111.827 29.0483 111.235 28.3925 110.814 27.5497C110.392 26.7069 110.182 25.7221 110.182 24.5952C110.182 23.4635 110.392 22.474 110.814 21.6264C111.235 20.7789 111.827 20.1207 112.589 19.652C113.352 19.1832 114.244 18.9489 115.267 18.9489C116.29 18.9489 117.182 19.1832 117.944 19.652C118.707 20.1207 119.299 20.7789 119.72 21.6264C120.141 22.474 120.352 23.4635 120.352 24.5952C120.352 25.7221 120.141 26.7069 119.72 27.5497C119.299 28.3925 118.707 29.0483 117.944 29.517C117.182 29.9858 116.29 30.2202 115.267 30.2202ZM115.274 28.4375C115.937 28.4375 116.486 28.2623 116.922 27.9119C117.357 27.5616 117.679 27.0952 117.888 26.5128C118.101 25.9304 118.207 25.2888 118.207 24.5881C118.207 23.892 118.101 23.2528 117.888 22.6705C117.679 22.0833 117.357 21.6122 116.922 21.2571C116.486 20.902 115.937 20.7244 115.274 20.7244C114.606 20.7244 114.052 20.902 113.612 21.2571C113.176 21.6122 112.852 22.0833 112.639 22.6705C112.431 23.2528 112.327 23.892 112.327 24.5881C112.327 25.2888 112.431 25.9304 112.639 26.5128C112.852 27.0952 113.176 27.5616 113.612 27.9119C114.052 28.2623 114.606 28.4375 115.274 28.4375ZM122.722 30V19.0909H124.775V20.8239H124.889C125.088 20.2367 125.438 19.7751 125.94 19.4389C126.446 19.098 127.019 18.9276 127.659 18.9276C127.791 18.9276 127.947 18.9323 128.127 18.9418C128.312 18.9512 128.456 18.9631 128.561 18.9773V21.0085C128.475 20.9848 128.324 20.9588 128.106 20.9304C127.888 20.8973 127.67 20.8807 127.453 20.8807C126.951 20.8807 126.503 20.9872 126.11 21.2003C125.722 21.4086 125.414 21.6998 125.187 22.0739C124.96 22.4432 124.846 22.8646 124.846 23.3381V30H122.722Z" fill="#F5F7F9"/>
</svg>
