<svg width="661" height="661" viewBox="0 0 661 661" fill="none" xmlns="http://www.w3.org/2000/svg">
<rect width="661" height="661" fill="#F0F0F0"/>
<path fill-rule="evenodd" clip-rule="evenodd" d="M124.886 170.469C122.196 168.91 119.693 167.458 116.995 165.894C116.995 166.987 116.946 167.906 117.029 168.814C117.049 169.051 117.443 169.303 117.715 169.459C119.861 170.701 122.007 171.939 124.176 173.134C124.722 173.436 124.979 173.797 124.888 174.406C124.883 174.44 124.88 174.474 124.888 174.508C125.378 176.511 124.194 177.453 122.587 178.08C122.333 178.179 121.929 178.135 121.688 177.995C118.405 176.116 115.129 174.221 111.877 172.288C111.6 172.124 111.343 171.661 111.341 171.336C111.304 167.505 111.302 163.675 111.341 159.844C111.343 159.496 111.639 159.059 111.926 158.822C113.225 157.75 114.45 157.734 115.951 158.731C118.568 160.469 121.343 161.973 124.085 163.519C124.707 163.87 124.909 164.271 124.896 164.95C124.857 166.719 124.883 168.489 124.883 170.466L124.886 170.469Z" fill="black"/>
<path fill-rule="evenodd" clip-rule="evenodd" d="M108.526 170.303C108.526 171.25 108.571 171.978 108.514 172.697C108.462 173.368 108.742 173.717 109.312 174.034C112.442 175.775 115.552 177.557 118.664 179.329C118.884 179.454 119.086 179.616 119.433 179.855C117.638 180.94 115.966 181.968 114.266 182.949C114.075 183.061 113.675 182.972 113.45 182.84C110.143 180.93 106.845 179.009 103.569 177.05C103.297 176.889 103.072 176.431 103.051 176.098C102.906 173.477 102.921 173.472 105.202 172.16C106.236 171.567 107.283 170.995 108.524 170.303H108.526Z" fill="black"/>
<path fill-rule="evenodd" clip-rule="evenodd" d="M108.508 160.794C108.508 163.019 108.516 164.989 108.495 166.959C108.495 167.125 108.355 167.362 108.213 167.443C106.567 168.382 104.909 169.296 103.048 170.334C103.048 168.127 103.043 166.136 103.061 164.146C103.061 164.013 103.201 163.828 103.328 163.756C104.971 162.803 106.622 161.869 108.508 160.794Z" fill="black"/>
<path d="M137.985 178V161.435H148.512V163.662H140.568V168.483H148.087V170.641H140.568V175.773H148.512V178H137.985ZM151.118 178V165.82H153.609V167.668H153.701C154.015 167.041 154.478 166.539 155.09 166.164C155.702 165.782 156.467 165.59 157.386 165.59C158.725 165.59 159.758 165.992 160.485 166.796C161.22 167.592 161.587 168.697 161.587 170.113V178H159.096V170.618C159.096 169.677 158.882 168.962 158.453 168.472C158.025 167.974 157.374 167.726 156.502 167.726C155.913 167.726 155.4 167.856 154.964 168.116C154.535 168.376 154.202 168.743 153.965 169.218C153.728 169.692 153.609 170.247 153.609 170.882V178H151.118ZM168.774 178.23C167.741 178.23 166.841 177.973 166.076 177.46C165.318 176.948 164.729 176.217 164.308 175.268C163.895 174.319 163.688 173.201 163.688 171.916V171.904C163.688 170.611 163.899 169.493 164.32 168.552C164.741 167.603 165.33 166.872 166.088 166.359C166.845 165.847 167.733 165.59 168.751 165.59C169.325 165.59 169.857 165.682 170.347 165.866C170.836 166.049 171.273 166.31 171.655 166.646C172.038 166.983 172.344 167.385 172.574 167.852H172.665V161.239H175.157V178H172.665V175.968H172.574C172.336 176.443 172.03 176.848 171.655 177.185C171.28 177.514 170.852 177.77 170.37 177.954C169.887 178.138 169.355 178.23 168.774 178.23ZM169.44 176.094C170.083 176.094 170.645 175.922 171.127 175.578C171.617 175.233 171.996 174.751 172.264 174.131C172.539 173.504 172.677 172.765 172.677 171.916V171.904C172.677 171.055 172.539 170.32 172.264 169.7C171.996 169.072 171.617 168.59 171.127 168.254C170.645 167.909 170.083 167.737 169.44 167.737C168.781 167.737 168.211 167.905 167.729 168.242C167.255 168.579 166.887 169.057 166.627 169.677C166.367 170.297 166.237 171.039 166.237 171.904V171.916C166.237 172.773 166.363 173.515 166.616 174.143C166.876 174.77 167.247 175.252 167.729 175.589C168.211 175.926 168.781 176.094 169.44 176.094ZM183.17 178.241C181.976 178.241 180.95 177.985 180.093 177.472C179.236 176.959 178.574 176.232 178.107 175.291C177.648 174.342 177.418 173.228 177.418 171.95V171.939C177.418 170.668 177.648 169.558 178.107 168.609C178.574 167.653 179.228 166.91 180.07 166.382C180.912 165.854 181.899 165.59 183.032 165.59C184.172 165.59 185.152 165.847 185.971 166.359C186.797 166.865 187.432 167.576 187.876 168.495C188.32 169.413 188.542 170.481 188.542 171.698V172.547H178.669V170.779H187.325L186.108 172.432V171.456C186.108 170.599 185.978 169.888 185.718 169.321C185.458 168.755 185.098 168.33 184.639 168.047C184.18 167.764 183.648 167.622 183.043 167.622C182.446 167.622 181.911 167.771 181.436 168.07C180.969 168.361 180.598 168.793 180.323 169.367C180.055 169.933 179.921 170.63 179.921 171.456V172.432C179.921 173.221 180.055 173.898 180.323 174.464C180.59 175.023 180.969 175.451 181.459 175.75C181.957 176.048 182.542 176.198 183.216 176.198C183.721 176.198 184.161 176.125 184.536 175.98C184.918 175.826 185.232 175.627 185.477 175.383C185.722 175.138 185.894 174.877 185.994 174.602L186.028 174.51H188.404L188.381 174.625C188.282 175.084 188.094 175.528 187.819 175.957C187.551 176.385 187.195 176.772 186.751 177.116C186.307 177.46 185.787 177.736 185.19 177.943C184.593 178.142 183.92 178.241 183.17 178.241ZM194.236 178.218C193.44 178.218 192.736 178.065 192.124 177.759C191.519 177.453 191.045 177.024 190.7 176.473C190.356 175.922 190.184 175.283 190.184 174.556V174.533C190.184 173.814 190.36 173.198 190.712 172.685C191.072 172.164 191.588 171.755 192.262 171.456C192.943 171.158 193.762 170.982 194.718 170.928L199.287 170.653V172.409L195.051 172.673C194.278 172.719 193.689 172.899 193.283 173.213C192.885 173.519 192.686 173.932 192.686 174.453V174.476C192.686 175.019 192.889 175.448 193.295 175.761C193.708 176.068 194.251 176.221 194.925 176.221C195.514 176.221 196.042 176.102 196.509 175.865C196.976 175.62 197.343 175.291 197.611 174.877C197.887 174.457 198.025 173.982 198.025 173.454V169.78C198.025 169.107 197.814 168.583 197.393 168.208C196.98 167.833 196.379 167.645 195.591 167.645C194.879 167.645 194.305 167.791 193.869 168.081C193.44 168.372 193.169 168.755 193.054 169.229L193.031 169.321H190.666L190.677 169.195C190.754 168.506 190.999 167.89 191.412 167.347C191.833 166.803 192.403 166.375 193.123 166.061C193.842 165.747 194.692 165.59 195.671 165.59C196.674 165.59 197.535 165.755 198.254 166.084C198.974 166.413 199.528 166.88 199.919 167.484C200.317 168.089 200.516 168.805 200.516 169.631V178H198.025V176.129H197.933C197.703 176.557 197.401 176.929 197.026 177.242C196.651 177.556 196.226 177.797 195.752 177.966C195.285 178.134 194.78 178.218 194.236 178.218ZM206.428 178L202.031 165.82H204.683L207.725 175.543H207.817L210.859 165.82H213.465L209.103 178H206.428ZM219.94 178.241C218.769 178.241 217.751 177.985 216.886 177.472C216.021 176.959 215.348 176.232 214.866 175.291C214.391 174.342 214.154 173.217 214.154 171.916V171.893C214.154 170.592 214.391 169.47 214.866 168.529C215.348 167.588 216.021 166.865 216.886 166.359C217.758 165.847 218.773 165.59 219.928 165.59C221.099 165.59 222.117 165.847 222.982 166.359C223.847 166.865 224.516 167.588 224.991 168.529C225.473 169.47 225.714 170.592 225.714 171.893V171.916C225.714 173.224 225.473 174.349 224.991 175.291C224.516 176.232 223.847 176.959 222.982 177.472C222.125 177.985 221.111 178.241 219.94 178.241ZM219.951 176.152C220.609 176.152 221.179 175.987 221.662 175.658C222.144 175.321 222.515 174.839 222.775 174.212C223.035 173.576 223.166 172.811 223.166 171.916V171.893C223.166 170.997 223.032 170.236 222.764 169.608C222.503 168.981 222.132 168.502 221.65 168.173C221.168 167.836 220.594 167.668 219.928 167.668C219.278 167.668 218.707 167.836 218.218 168.173C217.736 168.502 217.361 168.981 217.093 169.608C216.832 170.236 216.702 170.997 216.702 171.893V171.916C216.702 172.811 216.832 173.576 217.093 174.212C217.361 174.839 217.736 175.321 218.218 175.658C218.707 175.987 219.285 176.152 219.951 176.152ZM227.895 178V165.82H230.386V167.852H230.478C230.677 167.148 231.029 166.597 231.534 166.199C232.039 165.793 232.656 165.59 233.383 165.59C233.566 165.59 233.738 165.602 233.899 165.625C234.068 165.648 234.201 165.671 234.301 165.694V168.001C234.171 167.963 234.003 167.932 233.796 167.909C233.597 167.879 233.375 167.863 233.13 167.863C232.571 167.863 232.085 167.978 231.672 168.208C231.266 168.437 230.949 168.766 230.719 169.195C230.497 169.624 230.386 170.14 230.386 170.745V178H227.895Z" fill="black"/>
<path d="M253.3 178.34C251.887 178.34 250.7 178.013 249.74 177.36C248.78 176.693 248.067 175.8 247.6 174.68C247.133 173.547 246.9 172.273 246.9 170.86C246.9 169.393 247.147 168.107 247.64 167C248.133 165.88 248.867 165.013 249.84 164.4C250.813 163.773 251.987 163.46 253.36 163.46C255.027 163.46 256.333 163.907 257.28 164.8C258.227 165.693 258.793 166.907 258.98 168.44L257.04 168.64C256.893 167.547 256.493 166.68 255.84 166.04C255.2 165.4 254.34 165.08 253.26 165.08C251.887 165.08 250.813 165.607 250.04 166.66C249.28 167.7 248.9 169.093 248.9 170.84C248.9 171.96 249.067 172.967 249.4 173.86C249.733 174.74 250.227 175.433 250.88 175.94C251.547 176.433 252.353 176.68 253.3 176.68C254.3 176.68 255.14 176.373 255.82 175.76C256.5 175.133 256.94 174.287 257.14 173.22L258.98 173.54C258.687 174.98 258.067 176.14 257.12 177.02C256.187 177.9 254.913 178.34 253.3 178.34ZM264.904 178.24C263.704 178.24 262.831 177.907 262.284 177.24C261.751 176.573 261.484 175.62 261.484 174.38V168H263.184V174.18C263.184 175.02 263.358 175.667 263.704 176.12C264.064 176.56 264.571 176.78 265.224 176.78C266.024 176.78 266.671 176.467 267.164 175.84C267.658 175.213 267.904 174.393 267.904 173.38V168H269.604V178H268.004V176.12C267.778 176.733 267.378 177.24 266.804 177.64C266.231 178.04 265.598 178.24 264.904 178.24ZM276.61 178.24C275.423 178.24 274.45 177.973 273.69 177.44C272.943 176.907 272.483 176.147 272.31 175.16L274.03 174.86C274.15 175.487 274.437 175.973 274.89 176.32C275.343 176.667 275.937 176.84 276.67 176.84C277.323 176.84 277.83 176.7 278.19 176.42C278.563 176.127 278.75 175.76 278.75 175.32C278.75 174.893 278.63 174.573 278.39 174.36C278.15 174.147 277.79 174 277.31 173.92L275.35 173.56C274.497 173.4 273.837 173.087 273.37 172.62C272.917 172.14 272.69 171.52 272.69 170.76C272.69 169.88 273.03 169.16 273.71 168.6C274.403 168.04 275.33 167.76 276.49 167.76C277.61 167.76 278.523 168 279.23 168.48C279.95 168.96 280.357 169.62 280.45 170.46L278.77 170.84C278.65 170.32 278.39 169.907 277.99 169.6C277.59 169.293 277.063 169.14 276.41 169.14C275.77 169.14 275.263 169.273 274.89 169.54C274.53 169.807 274.35 170.187 274.35 170.68C274.35 171.08 274.477 171.393 274.73 171.62C274.997 171.847 275.383 172.007 275.89 172.1L277.83 172.46C278.723 172.633 279.377 172.947 279.79 173.4C280.217 173.84 280.43 174.433 280.43 175.18C280.43 176.1 280.09 176.84 279.41 177.4C278.743 177.96 277.81 178.24 276.61 178.24ZM281.749 168H283.609V165.38L285.309 164.66V168H287.809V169.4H285.309V174.94C285.309 175.513 285.423 175.933 285.649 176.2C285.889 176.453 286.263 176.58 286.769 176.58C287.063 176.58 287.409 176.533 287.809 176.44V178C287.369 178.12 286.876 178.18 286.329 178.18C285.316 178.18 284.609 177.907 284.209 177.36C283.809 176.813 283.609 176.027 283.609 175V169.4H281.749V168ZM293.962 178.24C293.029 178.24 292.209 178.033 291.502 177.62C290.796 177.193 290.249 176.587 289.862 175.8C289.489 175.013 289.302 174.08 289.302 173C289.302 171.92 289.489 170.987 289.862 170.2C290.249 169.413 290.796 168.813 291.502 168.4C292.209 167.973 293.029 167.76 293.962 167.76C294.896 167.76 295.716 167.973 296.422 168.4C297.129 168.813 297.669 169.413 298.042 170.2C298.429 170.987 298.622 171.92 298.622 173C298.622 174.08 298.429 175.013 298.042 175.8C297.669 176.587 297.129 177.193 296.422 177.62C295.716 178.033 294.896 178.24 293.962 178.24ZM293.962 176.76C294.869 176.76 295.569 176.44 296.062 175.8C296.569 175.16 296.822 174.227 296.822 173C296.822 171.773 296.569 170.84 296.062 170.2C295.569 169.56 294.869 169.24 293.962 169.24C293.056 169.24 292.349 169.56 291.842 170.2C291.349 170.84 291.102 171.773 291.102 173C291.102 174.227 291.349 175.16 291.842 175.8C292.349 176.44 293.056 176.76 293.962 176.76ZM302.916 168V169.74C303.476 168.42 304.429 167.76 305.776 167.76C306.469 167.76 307.056 167.933 307.536 168.28C308.029 168.613 308.389 169.107 308.616 169.76C309.269 168.427 310.282 167.76 311.656 167.76C312.616 167.76 313.362 168.087 313.896 168.74C314.429 169.38 314.696 170.28 314.696 171.44V178H312.996V171.58C312.996 170.007 312.362 169.22 311.096 169.22C310.389 169.22 309.836 169.473 309.436 169.98C309.049 170.473 308.856 171.173 308.856 172.08V178H307.156V171.5C307.156 170.767 306.989 170.207 306.656 169.82C306.336 169.42 305.876 169.22 305.276 169.22C304.582 169.22 304.029 169.487 303.616 170.02C303.216 170.54 303.016 171.253 303.016 172.16V178H301.316V168H302.916ZM330.671 170.66C331.537 170.807 332.217 171.187 332.711 171.8C333.204 172.4 333.451 173.167 333.451 174.1C333.451 174.767 333.297 175.393 332.991 175.98C332.697 176.567 332.197 177.053 331.491 177.44C330.797 177.813 329.884 178 328.751 178H323.391V163.8H328.331C330.024 163.8 331.231 164.173 331.951 164.92C332.684 165.667 333.051 166.553 333.051 167.58C333.051 168.287 332.844 168.92 332.431 169.48C332.031 170.04 331.444 170.433 330.671 170.66ZM325.291 165.4V169.96H328.331C330.224 169.96 331.171 169.213 331.171 167.72C331.171 167.053 330.957 166.5 330.531 166.06C330.117 165.62 329.384 165.4 328.331 165.4H325.291ZM328.651 176.4C329.677 176.4 330.417 176.167 330.871 175.7C331.337 175.233 331.571 174.64 331.571 173.92C331.571 173.213 331.344 172.647 330.891 172.22C330.451 171.78 329.771 171.56 328.851 171.56H325.291V176.4H328.651ZM339.475 178.24C338.275 178.24 337.401 177.907 336.855 177.24C336.321 176.573 336.055 175.62 336.055 174.38V168H337.755V174.18C337.755 175.02 337.928 175.667 338.275 176.12C338.635 176.56 339.141 176.78 339.795 176.78C340.595 176.78 341.241 176.467 341.735 175.84C342.228 175.213 342.475 174.393 342.475 173.38V168H344.175V178H342.575V176.12C342.348 176.733 341.948 177.24 341.375 177.64C340.801 178.04 340.168 178.24 339.475 178.24ZM351.18 178.24C349.994 178.24 349.02 177.973 348.26 177.44C347.514 176.907 347.054 176.147 346.88 175.16L348.6 174.86C348.72 175.487 349.007 175.973 349.46 176.32C349.914 176.667 350.507 176.84 351.24 176.84C351.894 176.84 352.4 176.7 352.76 176.42C353.134 176.127 353.32 175.76 353.32 175.32C353.32 174.893 353.2 174.573 352.96 174.36C352.72 174.147 352.36 174 351.88 173.92L349.92 173.56C349.067 173.4 348.407 173.087 347.94 172.62C347.487 172.14 347.26 171.52 347.26 170.76C347.26 169.88 347.6 169.16 348.28 168.6C348.974 168.04 349.9 167.76 351.06 167.76C352.18 167.76 353.094 168 353.8 168.48C354.52 168.96 354.927 169.62 355.02 170.46L353.34 170.84C353.22 170.32 352.96 169.907 352.56 169.6C352.16 169.293 351.634 169.14 350.98 169.14C350.34 169.14 349.834 169.273 349.46 169.54C349.1 169.807 348.92 170.187 348.92 170.68C348.92 171.08 349.047 171.393 349.3 171.62C349.567 171.847 349.954 172.007 350.46 172.1L352.4 172.46C353.294 172.633 353.947 172.947 354.36 173.4C354.787 173.84 355 174.433 355 175.18C355 176.1 354.66 176.84 353.98 177.4C353.314 177.96 352.38 178.24 351.18 178.24ZM357.82 168H359.52V178H357.82V168ZM357.7 164H359.64V166.14H357.7V164ZM363.113 168H364.713V169.98C365.366 168.5 366.479 167.76 368.053 167.76C369.159 167.76 369.993 168.1 370.553 168.78C371.113 169.447 371.393 170.447 371.393 171.78V178H369.693V171.88C369.693 170.107 368.959 169.22 367.493 169.22C366.666 169.22 366.013 169.54 365.533 170.18C365.053 170.807 364.813 171.673 364.813 172.78V178H363.113V168ZM382.595 173.5H375.495C375.508 174.473 375.781 175.26 376.315 175.86C376.861 176.447 377.581 176.74 378.475 176.74C379.115 176.74 379.661 176.58 380.115 176.26C380.568 175.927 380.908 175.453 381.135 174.84L382.535 175.46C382.188 176.367 381.655 177.06 380.935 177.54C380.228 178.007 379.368 178.24 378.355 178.24C376.915 178.24 375.795 177.8 374.995 176.92C374.195 176.027 373.795 174.76 373.795 173.12C373.795 171.44 374.195 170.127 374.995 169.18C375.795 168.233 376.908 167.76 378.335 167.76C379.695 167.76 380.741 168.147 381.475 168.92C382.221 169.693 382.595 170.82 382.595 172.3V173.5ZM380.875 171.9C380.875 170.993 380.648 170.3 380.195 169.82C379.755 169.34 379.121 169.1 378.295 169.1C377.428 169.1 376.748 169.367 376.255 169.9C375.775 170.433 375.521 171.173 375.495 172.12H380.875V171.9ZM388.798 178.24C387.611 178.24 386.638 177.973 385.878 177.44C385.131 176.907 384.671 176.147 384.498 175.16L386.218 174.86C386.338 175.487 386.624 175.973 387.078 176.32C387.531 176.667 388.124 176.84 388.858 176.84C389.511 176.84 390.018 176.7 390.378 176.42C390.751 176.127 390.938 175.76 390.938 175.32C390.938 174.893 390.818 174.573 390.578 174.36C390.338 174.147 389.978 174 389.498 173.92L387.538 173.56C386.684 173.4 386.024 173.087 385.558 172.62C385.104 172.14 384.878 171.52 384.878 170.76C384.878 169.88 385.218 169.16 385.898 168.6C386.591 168.04 387.518 167.76 388.678 167.76C389.798 167.76 390.711 168 391.418 168.48C392.138 168.96 392.544 169.62 392.638 170.46L390.958 170.84C390.838 170.32 390.578 169.907 390.178 169.6C389.778 169.293 389.251 169.14 388.598 169.14C387.958 169.14 387.451 169.273 387.078 169.54C386.718 169.807 386.538 170.187 386.538 170.68C386.538 171.08 386.664 171.393 386.918 171.62C387.184 171.847 387.571 172.007 388.078 172.1L390.018 172.46C390.911 172.633 391.564 172.947 391.978 173.4C392.404 173.84 392.618 174.433 392.618 175.18C392.618 176.1 392.278 176.84 391.598 177.4C390.931 177.96 389.998 178.24 388.798 178.24ZM398.641 178.24C397.455 178.24 396.481 177.973 395.721 177.44C394.975 176.907 394.515 176.147 394.341 175.16L396.061 174.86C396.181 175.487 396.468 175.973 396.921 176.32C397.375 176.667 397.968 176.84 398.701 176.84C399.355 176.84 399.861 176.7 400.221 176.42C400.595 176.127 400.781 175.76 400.781 175.32C400.781 174.893 400.661 174.573 400.421 174.36C400.181 174.147 399.821 174 399.341 173.92L397.381 173.56C396.528 173.4 395.868 173.087 395.401 172.62C394.948 172.14 394.721 171.52 394.721 170.76C394.721 169.88 395.061 169.16 395.741 168.6C396.435 168.04 397.361 167.76 398.521 167.76C399.641 167.76 400.555 168 401.261 168.48C401.981 168.96 402.388 169.62 402.481 170.46L400.801 170.84C400.681 170.32 400.421 169.907 400.021 169.6C399.621 169.293 399.095 169.14 398.441 169.14C397.801 169.14 397.295 169.273 396.921 169.54C396.561 169.807 396.381 170.187 396.381 170.68C396.381 171.08 396.508 171.393 396.761 171.62C397.028 171.847 397.415 172.007 397.921 172.1L399.861 172.46C400.755 172.633 401.408 172.947 401.821 173.4C402.248 173.84 402.461 174.433 402.461 175.18C402.461 176.1 402.121 176.84 401.441 177.4C400.775 177.96 399.841 178.24 398.641 178.24ZM410.676 163.8H412.576V176.4H419.136V178H410.676V163.8ZM425.095 178.24C424.162 178.24 423.342 178.033 422.635 177.62C421.928 177.193 421.382 176.587 420.995 175.8C420.622 175.013 420.435 174.08 420.435 173C420.435 171.92 420.622 170.987 420.995 170.2C421.382 169.413 421.928 168.813 422.635 168.4C423.342 167.973 424.162 167.76 425.095 167.76C426.028 167.76 426.848 167.973 427.555 168.4C428.262 168.813 428.802 169.413 429.175 170.2C429.562 170.987 429.755 171.92 429.755 173C429.755 174.08 429.562 175.013 429.175 175.8C428.802 176.587 428.262 177.193 427.555 177.62C426.848 178.033 426.028 178.24 425.095 178.24ZM425.095 176.76C426.002 176.76 426.702 176.44 427.195 175.8C427.702 175.16 427.955 174.227 427.955 173C427.955 171.773 427.702 170.84 427.195 170.2C426.702 169.56 426.002 169.24 425.095 169.24C424.188 169.24 423.482 169.56 422.975 170.2C422.482 170.84 422.235 171.773 422.235 173C422.235 174.227 422.482 175.16 422.975 175.8C423.482 176.44 424.188 176.76 425.095 176.76ZM440.228 167.84C439.468 167.84 438.968 168.153 438.728 168.78C439.342 169.393 439.648 170.18 439.648 171.14C439.648 171.793 439.495 172.38 439.188 172.9C438.895 173.407 438.468 173.813 437.908 174.12C437.362 174.413 436.708 174.56 435.948 174.56C435.255 174.56 434.615 174.42 434.028 174.14C433.815 174.233 433.642 174.367 433.508 174.54C433.375 174.7 433.308 174.893 433.308 175.12C433.308 175.427 433.435 175.673 433.688 175.86C433.955 176.047 434.382 176.14 434.968 176.14H437.408C438.528 176.14 439.375 176.387 439.948 176.88C440.522 177.36 440.808 178.053 440.808 178.96C440.808 179.947 440.402 180.72 439.588 181.28C438.775 181.853 437.528 182.14 435.848 182.14C434.222 182.14 433.062 181.887 432.368 181.38C431.688 180.873 431.348 180.213 431.348 179.4C431.348 178.92 431.488 178.493 431.768 178.12C432.048 177.76 432.448 177.493 432.968 177.32C432.195 176.973 431.808 176.393 431.808 175.58C431.808 175.1 431.935 174.687 432.188 174.34C432.442 173.993 432.788 173.74 433.228 173.58C432.575 172.953 432.248 172.14 432.248 171.14C432.248 170.153 432.582 169.347 433.248 168.72C433.915 168.08 434.815 167.76 435.948 167.76C436.655 167.76 437.308 167.9 437.908 168.18C438.068 167.633 438.342 167.193 438.728 166.86C439.128 166.527 439.648 166.36 440.288 166.36C440.528 166.36 440.748 166.387 440.948 166.44V167.92C440.682 167.867 440.442 167.84 440.228 167.84ZM435.948 173.26C436.575 173.26 437.082 173.067 437.468 172.68C437.855 172.28 438.048 171.773 438.048 171.16C438.048 170.547 437.855 170.047 437.468 169.66C437.082 169.26 436.575 169.06 435.948 169.06C435.308 169.06 434.795 169.253 434.408 169.64C434.035 170.027 433.848 170.527 433.848 171.14C433.848 171.753 434.042 172.26 434.428 172.66C434.815 173.06 435.322 173.26 435.948 173.26ZM434.908 177.64C434.695 177.64 434.415 177.627 434.068 177.6C433.722 177.76 433.455 177.973 433.268 178.24C433.095 178.507 433.008 178.793 433.008 179.1C433.008 179.687 433.268 180.107 433.788 180.36C434.322 180.613 435.075 180.74 436.048 180.74C437.182 180.74 437.975 180.587 438.428 180.28C438.882 179.987 439.108 179.587 439.108 179.08C439.108 178.613 438.935 178.253 438.588 178C438.242 177.76 437.722 177.64 437.028 177.64H434.908ZM443.152 168H444.852V178H443.152V168ZM443.032 164H444.972V166.14H443.032V164ZM452.145 178.24C451.225 178.24 450.418 178.027 449.725 177.6C449.031 177.173 448.491 176.567 448.105 175.78C447.731 174.98 447.545 174.053 447.545 173C447.545 171.373 447.951 170.093 448.765 169.16C449.591 168.227 450.718 167.76 452.145 167.76C453.318 167.76 454.265 168.08 454.985 168.72C455.705 169.36 456.131 170.253 456.265 171.4L454.525 171.6C454.431 170.84 454.171 170.26 453.745 169.86C453.331 169.447 452.785 169.24 452.105 169.24C451.238 169.24 450.558 169.573 450.065 170.24C449.585 170.893 449.345 171.807 449.345 172.98C449.345 174.18 449.591 175.113 450.085 175.78C450.578 176.433 451.271 176.76 452.165 176.76C452.845 176.76 453.391 176.56 453.805 176.16C454.218 175.76 454.491 175.167 454.625 174.38L456.245 174.64C456.058 175.787 455.605 176.673 454.885 177.3C454.178 177.927 453.265 178.24 452.145 178.24Z" fill="#1E1E1E"/>
<rect x="100" y="202" width="461" height="2" fill="#D4D4D4"/>
<rect x="101" y="237" width="216" height="62" rx="13" stroke="#D9D9D9" stroke-width="2"/>
<path d="M136 259H143C143.53 259 144.039 259.211 144.414 259.586C144.789 259.961 145 260.47 145 261V275C145 275.53 144.789 276.039 144.414 276.414C144.039 276.789 143.53 277 143 277H136M136 259H129C128.47 259 127.961 259.211 127.586 259.586C127.211 259.961 127 260.47 127 261V275C127 275.53 127.211 276.039 127.586 276.414C127.961 276.789 128.47 277 129 277H136M136 259V277" stroke="#A29B9B" stroke-width="2" stroke-linecap="round" stroke-linejoin="round"/>
<path d="M170.034 267.727C170.034 269.261 169.757 270.587 169.203 271.705C168.649 272.822 167.889 273.684 166.923 274.29C165.957 274.896 164.854 275.199 163.614 275.199C162.373 275.199 161.27 274.896 160.304 274.29C159.338 273.684 158.578 272.822 158.024 271.705C157.47 270.587 157.193 269.261 157.193 267.727C157.193 266.193 157.47 264.867 158.024 263.75C158.578 262.633 159.338 261.771 160.304 261.165C161.27 260.559 162.373 260.256 163.614 260.256C164.854 260.256 165.957 260.559 166.923 261.165C167.889 261.771 168.649 262.633 169.203 263.75C169.757 264.867 170.034 266.193 170.034 267.727ZM168.33 267.727C168.33 266.468 168.119 265.405 167.697 264.538C167.281 263.672 166.715 263.016 166 262.571C165.29 262.126 164.494 261.903 163.614 261.903C162.733 261.903 161.935 262.126 161.22 262.571C160.51 263.016 159.944 263.672 159.523 264.538C159.106 265.405 158.898 266.468 158.898 267.727C158.898 268.987 159.106 270.05 159.523 270.916C159.944 271.783 160.51 272.438 161.22 272.884C161.935 273.329 162.733 273.551 163.614 273.551C164.494 273.551 165.29 273.329 166 272.884C166.715 272.438 167.281 271.783 167.697 270.916C168.119 270.05 168.33 268.987 168.33 267.727ZM172.768 275V264.091H174.388V265.739H174.501C174.7 265.199 175.06 264.761 175.581 264.425C176.102 264.089 176.689 263.92 177.342 263.92C177.465 263.92 177.619 263.923 177.804 263.928C177.989 263.932 178.128 263.939 178.223 263.949V265.653C178.166 265.639 178.036 265.618 177.832 265.589C177.634 265.556 177.423 265.54 177.2 265.54C176.67 265.54 176.196 265.651 175.78 265.874C175.368 266.091 175.041 266.394 174.8 266.783C174.563 267.166 174.445 267.604 174.445 268.097V275H172.768ZM183.997 275.227C183.088 275.227 182.286 274.998 181.589 274.538C180.893 274.074 180.349 273.421 179.956 272.578C179.563 271.731 179.366 270.729 179.366 269.574C179.366 268.428 179.563 267.434 179.956 266.591C180.349 265.748 180.896 265.097 181.597 264.638C182.297 264.179 183.107 263.949 184.026 263.949C184.736 263.949 185.297 264.067 185.709 264.304C186.125 264.536 186.443 264.801 186.661 265.099C186.883 265.393 187.056 265.634 187.179 265.824H187.321V260.455H188.997V275H187.378V273.324H187.179C187.056 273.523 186.881 273.774 186.653 274.077C186.426 274.375 186.102 274.643 185.68 274.879C185.259 275.111 184.698 275.227 183.997 275.227ZM184.224 273.722C184.897 273.722 185.465 273.546 185.929 273.196C186.393 272.841 186.746 272.351 186.987 271.726C187.229 271.096 187.349 270.369 187.349 269.545C187.349 268.731 187.231 268.018 186.994 267.408C186.758 266.792 186.407 266.314 185.943 265.973C185.479 265.627 184.906 265.455 184.224 265.455C183.514 265.455 182.922 265.637 182.449 266.001C181.98 266.361 181.627 266.851 181.391 267.472C181.159 268.087 181.043 268.778 181.043 269.545C181.043 270.322 181.161 271.027 181.398 271.662C181.639 272.292 181.994 272.794 182.463 273.168C182.937 273.537 183.524 273.722 184.224 273.722ZM196.874 275.227C195.822 275.227 194.916 274.995 194.153 274.531C193.396 274.062 192.811 273.409 192.399 272.571C191.992 271.728 191.788 270.748 191.788 269.631C191.788 268.513 191.992 267.528 192.399 266.676C192.811 265.819 193.384 265.152 194.118 264.673C194.857 264.19 195.718 263.949 196.703 263.949C197.271 263.949 197.832 264.044 198.386 264.233C198.94 264.422 199.445 264.73 199.899 265.156C200.354 265.578 200.716 266.136 200.986 266.832C201.256 267.528 201.391 268.385 201.391 269.403V270.114H192.982V268.665H199.686C199.686 268.049 199.563 267.5 199.317 267.017C199.075 266.534 198.73 266.153 198.28 265.874C197.835 265.594 197.309 265.455 196.703 265.455C196.036 265.455 195.458 265.62 194.97 265.952C194.487 266.278 194.116 266.705 193.855 267.23C193.595 267.756 193.464 268.319 193.464 268.92V269.886C193.464 270.71 193.607 271.409 193.891 271.982C194.179 272.55 194.58 272.983 195.091 273.281C195.602 273.575 196.196 273.722 196.874 273.722C197.314 273.722 197.712 273.66 198.067 273.537C198.427 273.409 198.737 273.22 198.997 272.969C199.258 272.713 199.459 272.396 199.601 272.017L201.22 272.472C201.05 273.021 200.763 273.504 200.361 273.92C199.958 274.332 199.461 274.654 198.869 274.886C198.277 275.114 197.612 275.227 196.874 275.227ZM203.94 275V264.091H205.56V265.739H205.673C205.872 265.199 206.232 264.761 206.753 264.425C207.274 264.089 207.861 263.92 208.514 263.92C208.637 263.92 208.791 263.923 208.976 263.928C209.161 263.932 209.3 263.939 209.395 263.949V265.653C209.338 265.639 209.208 265.618 209.004 265.589C208.805 265.556 208.595 265.54 208.372 265.54C207.842 265.54 207.368 265.651 206.952 265.874C206.54 266.091 206.213 266.394 205.972 266.783C205.735 267.166 205.616 267.604 205.616 268.097V275H203.94ZM225.189 264.091C225.103 263.371 224.758 262.812 224.152 262.415C223.546 262.017 222.802 261.818 221.922 261.818C221.278 261.818 220.714 261.922 220.231 262.131C219.753 262.339 219.379 262.625 219.109 262.99C218.844 263.355 218.711 263.769 218.711 264.233C218.711 264.621 218.804 264.955 218.988 265.234C219.178 265.509 219.419 265.739 219.713 265.923C220.006 266.103 220.314 266.252 220.636 266.371C220.958 266.484 221.254 266.577 221.524 266.648L223.001 267.045C223.38 267.145 223.801 267.282 224.265 267.457C224.734 267.633 225.181 267.872 225.608 268.175C226.038 268.473 226.394 268.857 226.673 269.325C226.952 269.794 227.092 270.369 227.092 271.051C227.092 271.837 226.886 272.547 226.474 273.182C226.067 273.816 225.47 274.321 224.684 274.695C223.903 275.069 222.954 275.256 221.836 275.256C220.795 275.256 219.893 275.088 219.13 274.751C218.373 274.415 217.776 273.946 217.341 273.345C216.91 272.744 216.666 272.045 216.609 271.25H218.427C218.475 271.799 218.659 272.254 218.981 272.614C219.308 272.969 219.72 273.234 220.217 273.409C220.719 273.58 221.259 273.665 221.836 273.665C222.509 273.665 223.112 273.556 223.647 273.338C224.182 273.116 224.606 272.808 224.919 272.415C225.231 272.017 225.387 271.553 225.387 271.023C225.387 270.54 225.252 270.147 224.983 269.844C224.713 269.541 224.358 269.295 223.917 269.105C223.477 268.916 223.001 268.75 222.49 268.608L220.7 268.097C219.564 267.77 218.664 267.304 218.001 266.697C217.338 266.091 217.007 265.298 217.007 264.318C217.007 263.504 217.227 262.794 217.667 262.188C218.112 261.577 218.709 261.103 219.457 260.767C220.21 260.426 221.05 260.256 221.978 260.256C222.916 260.256 223.749 260.424 224.478 260.76C225.208 261.091 225.785 261.546 226.211 262.124C226.642 262.701 226.869 263.357 226.893 264.091H225.189ZM229.761 279.091V264.091H231.38V265.824H231.579C231.702 265.634 231.872 265.393 232.09 265.099C232.313 264.801 232.63 264.536 233.042 264.304C233.459 264.067 234.022 263.949 234.732 263.949C235.651 263.949 236.46 264.179 237.161 264.638C237.862 265.097 238.409 265.748 238.802 266.591C239.195 267.434 239.391 268.428 239.391 269.574C239.391 270.729 239.195 271.731 238.802 272.578C238.409 273.421 237.864 274.074 237.168 274.538C236.472 274.998 235.67 275.227 234.761 275.227C234.06 275.227 233.499 275.111 233.077 274.879C232.656 274.643 232.332 274.375 232.104 274.077C231.877 273.774 231.702 273.523 231.579 273.324H231.437V279.091H229.761ZM231.408 269.545C231.408 270.369 231.529 271.096 231.771 271.726C232.012 272.351 232.365 272.841 232.829 273.196C233.293 273.546 233.861 273.722 234.533 273.722C235.234 273.722 235.819 273.537 236.288 273.168C236.761 272.794 237.116 272.292 237.353 271.662C237.594 271.027 237.715 270.322 237.715 269.545C237.715 268.778 237.597 268.087 237.36 267.472C237.128 266.851 236.775 266.361 236.302 266.001C235.833 265.637 235.244 265.455 234.533 265.455C233.852 265.455 233.279 265.627 232.815 265.973C232.351 266.314 232 266.792 231.763 267.408C231.527 268.018 231.408 268.731 231.408 269.545ZM243.624 260.455V275H241.948V260.455H243.624ZM246.694 275V264.091H248.37V275H246.694ZM247.547 262.273C247.22 262.273 246.938 262.161 246.701 261.939C246.469 261.716 246.353 261.449 246.353 261.136C246.353 260.824 246.469 260.556 246.701 260.334C246.938 260.111 247.22 260 247.547 260C247.873 260 248.153 260.111 248.385 260.334C248.621 260.556 248.74 260.824 248.74 261.136C248.74 261.449 248.621 261.716 248.385 261.939C248.153 262.161 247.873 262.273 247.547 262.273ZM256.185 264.091V265.511H250.531V264.091H256.185ZM252.179 261.477H253.855V271.875C253.855 272.348 253.924 272.704 254.061 272.94C254.203 273.172 254.383 273.329 254.601 273.409C254.823 273.485 255.058 273.523 255.304 273.523C255.489 273.523 255.64 273.513 255.759 273.494C255.877 273.471 255.972 273.452 256.043 273.438L256.384 274.943C256.27 274.986 256.111 275.028 255.908 275.071C255.704 275.118 255.446 275.142 255.134 275.142C254.66 275.142 254.196 275.04 253.741 274.837C253.292 274.633 252.918 274.323 252.619 273.906C252.326 273.49 252.179 272.964 252.179 272.33V261.477ZM263.45 264.091V265.511H257.797V264.091H263.45ZM259.445 261.477H261.121V271.875C261.121 272.348 261.189 272.704 261.327 272.94C261.469 273.172 261.649 273.329 261.866 273.409C262.089 273.485 262.323 273.523 262.57 273.523C262.754 273.523 262.906 273.513 263.024 273.494C263.143 273.471 263.237 273.452 263.308 273.438L263.649 274.943C263.536 274.986 263.377 275.028 263.173 275.071C262.97 275.118 262.712 275.142 262.399 275.142C261.926 275.142 261.462 275.04 261.007 274.837C260.557 274.633 260.183 274.323 259.885 273.906C259.591 273.49 259.445 272.964 259.445 272.33V261.477ZM265.972 275V264.091H267.648V275H265.972ZM266.824 262.273C266.497 262.273 266.215 262.161 265.979 261.939C265.747 261.716 265.631 261.449 265.631 261.136C265.631 260.824 265.747 260.556 265.979 260.334C266.215 260.111 266.497 260 266.824 260C267.151 260 267.43 260.111 267.662 260.334C267.899 260.556 268.017 260.824 268.017 261.136C268.017 261.449 267.899 261.716 267.662 261.939C267.43 262.161 267.151 262.273 266.824 262.273ZM272.394 268.438V275H270.718V264.091H272.337V265.795H272.479C272.735 265.241 273.123 264.796 273.644 264.46C274.165 264.119 274.837 263.949 275.661 263.949C276.4 263.949 277.046 264.1 277.6 264.403C278.154 264.702 278.585 265.156 278.892 265.767C279.2 266.373 279.354 267.14 279.354 268.068V275H277.678V268.182C277.678 267.325 277.455 266.657 277.01 266.179C276.565 265.696 275.954 265.455 275.178 265.455C274.643 265.455 274.165 265.571 273.743 265.803C273.327 266.035 272.998 266.373 272.756 266.818C272.515 267.263 272.394 267.803 272.394 268.438ZM286.82 279.318C286.011 279.318 285.315 279.214 284.732 279.006C284.15 278.802 283.665 278.532 283.276 278.196C282.893 277.865 282.587 277.509 282.36 277.131L283.695 276.193C283.847 276.392 284.039 276.619 284.271 276.875C284.503 277.135 284.82 277.36 285.222 277.55C285.629 277.744 286.162 277.841 286.82 277.841C287.701 277.841 288.428 277.628 289.001 277.202C289.574 276.776 289.86 276.108 289.86 275.199V272.983H289.718C289.595 273.182 289.42 273.428 289.192 273.722C288.97 274.01 288.648 274.268 288.227 274.496C287.81 274.718 287.246 274.83 286.536 274.83C285.656 274.83 284.865 274.621 284.164 274.205C283.468 273.788 282.916 273.182 282.509 272.386C282.107 271.591 281.906 270.625 281.906 269.489C281.906 268.371 282.102 267.398 282.495 266.57C282.888 265.736 283.435 265.092 284.136 264.638C284.836 264.179 285.646 263.949 286.565 263.949C287.275 263.949 287.838 264.067 288.255 264.304C288.676 264.536 288.998 264.801 289.221 265.099C289.448 265.393 289.623 265.634 289.746 265.824H289.917V264.091H291.536V275.312C291.536 276.25 291.323 277.012 290.897 277.599C290.476 278.191 289.907 278.625 289.192 278.899C288.482 279.179 287.692 279.318 286.82 279.318ZM286.763 273.324C287.436 273.324 288.004 273.17 288.468 272.862C288.932 272.554 289.285 272.112 289.526 271.534C289.768 270.956 289.888 270.265 289.888 269.46C289.888 268.674 289.77 267.981 289.533 267.379C289.297 266.778 288.946 266.307 288.482 265.966C288.018 265.625 287.445 265.455 286.763 265.455C286.053 265.455 285.461 265.634 284.988 265.994C284.519 266.354 284.166 266.837 283.93 267.443C283.698 268.049 283.582 268.722 283.582 269.46C283.582 270.218 283.7 270.888 283.937 271.47C284.178 272.048 284.533 272.502 285.002 272.834C285.476 273.161 286.063 273.324 286.763 273.324Z" fill="#A29B9B"/>
<rect x="331" y="237" width="172" height="62" rx="13" stroke="#D9D9D9" stroke-width="2"/>
<path d="M358.795 263.056C358.795 261.807 359.807 260.795 361.056 260.794H362.085C362.682 260.794 363.254 260.557 363.678 260.137L364.397 259.417C365.278 258.531 366.71 258.527 367.596 259.408L367.597 259.409L367.606 259.417L368.326 260.137C368.75 260.558 369.322 260.794 369.919 260.794H370.947C372.196 260.794 373.209 261.806 373.209 263.056V264.083C373.209 264.68 373.445 265.253 373.866 265.677L374.586 266.397C375.472 267.278 375.477 268.71 374.596 269.596L374.595 269.597L374.586 269.606L373.866 270.326C373.445 270.749 373.209 271.321 373.209 271.918V272.947C373.209 274.196 372.197 275.208 370.948 275.208H370.947H369.917C369.32 275.208 368.747 275.445 368.324 275.866L367.604 276.585C366.724 277.471 365.293 277.476 364.407 276.597C364.406 276.596 364.405 276.595 364.404 276.594L364.395 276.585L363.676 275.866C363.253 275.445 362.68 275.209 362.083 275.208H361.056C359.807 275.208 358.795 274.196 358.795 272.947V271.916C358.795 271.319 358.558 270.747 358.137 270.324L357.418 269.604C356.532 268.724 356.527 267.293 357.407 266.407C357.407 266.406 357.408 266.405 357.409 266.404L357.418 266.395L358.137 265.675C358.558 265.251 358.795 264.679 358.795 264.081V263.056" stroke="#A29B9B" stroke-width="1.5" stroke-linecap="round" stroke-linejoin="round"/>
<path d="M363.432 270.572L368.572 265.432" stroke="#A29B9B" stroke-width="1.5" stroke-linecap="round" stroke-linejoin="round"/>
<path d="M368.495 270.5H368.504" stroke="#A29B9B" stroke-width="2" stroke-linecap="round" stroke-linejoin="round"/>
<path d="M363.495 265.5H363.504" stroke="#A29B9B" stroke-width="2" stroke-linecap="round" stroke-linejoin="round"/>
<path d="M392.25 275H387.761V260.455H392.449C393.86 260.455 395.067 260.746 396.071 261.328C397.075 261.906 397.844 262.737 398.379 263.821C398.914 264.901 399.182 266.193 399.182 267.699C399.182 269.214 398.912 270.518 398.372 271.612C397.832 272.701 397.046 273.539 396.014 274.126C394.982 274.709 393.727 275 392.25 275ZM389.523 273.438H392.136C393.339 273.438 394.336 273.205 395.126 272.741C395.917 272.277 396.507 271.617 396.895 270.76C397.283 269.903 397.477 268.883 397.477 267.699C397.477 266.525 397.286 265.514 396.902 264.666C396.518 263.814 395.946 263.161 395.183 262.706C394.421 262.247 393.472 262.017 392.335 262.017H389.523V273.438ZM401.909 275V264.091H403.585V275H401.909ZM402.761 262.273C402.435 262.273 402.153 262.161 401.916 261.939C401.684 261.716 401.568 261.449 401.568 261.136C401.568 260.824 401.684 260.556 401.916 260.334C402.153 260.111 402.435 260 402.761 260C403.088 260 403.367 260.111 403.599 260.334C403.836 260.556 403.955 260.824 403.955 261.136C403.955 261.449 403.836 261.716 403.599 261.939C403.367 262.161 403.088 262.273 402.761 262.273ZM414.382 266.534L412.877 266.96C412.782 266.709 412.642 266.465 412.458 266.229C412.278 265.987 412.032 265.788 411.719 265.632C411.407 265.476 411.007 265.398 410.519 265.398C409.851 265.398 409.295 265.552 408.85 265.859C408.409 266.162 408.189 266.548 408.189 267.017C408.189 267.434 408.341 267.763 408.644 268.004C408.947 268.246 409.42 268.447 410.064 268.608L411.684 269.006C412.659 269.242 413.386 269.605 413.864 270.092C414.342 270.575 414.581 271.198 414.581 271.96C414.581 272.585 414.401 273.144 414.042 273.636C413.686 274.129 413.189 274.517 412.55 274.801C411.911 275.085 411.167 275.227 410.32 275.227C409.207 275.227 408.286 274.986 407.557 274.503C406.828 274.02 406.366 273.314 406.172 272.386L407.763 271.989C407.915 272.576 408.201 273.016 408.623 273.31C409.049 273.603 409.605 273.75 410.292 273.75C411.073 273.75 411.693 273.584 412.152 273.253C412.616 272.917 412.848 272.514 412.848 272.045C412.848 271.667 412.716 271.349 412.451 271.094C412.185 270.833 411.778 270.639 411.229 270.511L409.411 270.085C408.412 269.848 407.678 269.482 407.209 268.984C406.745 268.482 406.513 267.855 406.513 267.102C406.513 266.487 406.686 265.942 407.032 265.469C407.382 264.995 407.858 264.624 408.459 264.354C409.065 264.084 409.752 263.949 410.519 263.949C411.598 263.949 412.446 264.186 413.061 264.659C413.682 265.133 414.122 265.758 414.382 266.534ZM421.536 275.227C420.513 275.227 419.633 274.986 418.894 274.503C418.156 274.02 417.587 273.355 417.19 272.507C416.792 271.66 416.593 270.691 416.593 269.602C416.593 268.494 416.797 267.517 417.204 266.669C417.616 265.817 418.189 265.152 418.923 264.673C419.661 264.19 420.523 263.949 421.508 263.949C422.275 263.949 422.966 264.091 423.582 264.375C424.197 264.659 424.701 265.057 425.094 265.568C425.487 266.08 425.731 266.676 425.826 267.358H424.15C424.022 266.861 423.738 266.42 423.298 266.037C422.862 265.649 422.275 265.455 421.536 265.455C420.883 265.455 420.31 265.625 419.817 265.966C419.33 266.302 418.949 266.778 418.674 267.393C418.404 268.004 418.269 268.722 418.269 269.545C418.269 270.388 418.402 271.122 418.667 271.747C418.937 272.372 419.316 272.857 419.803 273.203C420.296 273.549 420.873 273.722 421.536 273.722C421.972 273.722 422.367 273.646 422.722 273.494C423.077 273.343 423.378 273.125 423.624 272.841C423.871 272.557 424.046 272.216 424.15 271.818H425.826C425.731 272.462 425.497 273.042 425.123 273.558C424.754 274.07 424.263 274.477 423.653 274.78C423.047 275.078 422.341 275.227 421.536 275.227ZM432.708 275.227C431.723 275.227 430.859 274.993 430.116 274.524C429.377 274.055 428.799 273.4 428.383 272.557C427.971 271.714 427.765 270.729 427.765 269.602C427.765 268.466 427.971 267.474 428.383 266.626C428.799 265.779 429.377 265.121 430.116 264.652C430.859 264.183 431.723 263.949 432.708 263.949C433.693 263.949 434.555 264.183 435.293 264.652C436.037 265.121 436.614 265.779 437.026 266.626C437.443 267.474 437.651 268.466 437.651 269.602C437.651 270.729 437.443 271.714 437.026 272.557C436.614 273.4 436.037 274.055 435.293 274.524C434.555 274.993 433.693 275.227 432.708 275.227ZM432.708 273.722C433.456 273.722 434.072 273.53 434.555 273.146C435.038 272.763 435.395 272.259 435.627 271.634C435.859 271.009 435.975 270.331 435.975 269.602C435.975 268.873 435.859 268.194 435.627 267.564C435.395 266.934 435.038 266.425 434.555 266.037C434.072 265.649 433.456 265.455 432.708 265.455C431.96 265.455 431.344 265.649 430.862 266.037C430.379 266.425 430.021 266.934 429.789 267.564C429.557 268.194 429.441 268.873 429.441 269.602C429.441 270.331 429.557 271.009 429.789 271.634C430.021 272.259 430.379 272.763 430.862 273.146C431.344 273.53 431.96 273.722 432.708 273.722ZM447.085 270.54V264.091H448.761V275H447.085V273.153H446.971C446.716 273.707 446.318 274.179 445.778 274.567C445.238 274.95 444.556 275.142 443.733 275.142C443.051 275.142 442.445 274.993 441.914 274.695C441.384 274.392 440.967 273.937 440.664 273.331C440.361 272.72 440.21 271.951 440.21 271.023V264.091H441.886V270.909C441.886 271.705 442.109 272.339 442.554 272.812C443.003 273.286 443.576 273.523 444.272 273.523C444.689 273.523 445.113 273.416 445.544 273.203C445.979 272.99 446.344 272.663 446.637 272.223C446.936 271.783 447.085 271.222 447.085 270.54ZM453.507 268.438V275H451.831V264.091H453.45V265.795H453.592C453.848 265.241 454.236 264.796 454.757 264.46C455.278 264.119 455.95 263.949 456.774 263.949C457.513 263.949 458.159 264.1 458.713 264.403C459.267 264.702 459.698 265.156 460.006 265.767C460.313 266.373 460.467 267.14 460.467 268.068V275H458.791V268.182C458.791 267.325 458.569 266.657 458.124 266.179C457.679 265.696 457.068 265.455 456.291 265.455C455.756 265.455 455.278 265.571 454.857 265.803C454.44 266.035 454.111 266.373 453.869 266.818C453.628 267.263 453.507 267.803 453.507 268.438ZM468.275 264.091V265.511H462.621V264.091H468.275ZM464.269 261.477H465.945V271.875C465.945 272.348 466.014 272.704 466.151 272.94C466.293 273.172 466.473 273.329 466.691 273.409C466.913 273.485 467.148 273.523 467.394 273.523C467.578 273.523 467.73 273.513 467.848 273.494C467.967 273.471 468.061 273.452 468.132 273.438L468.473 274.943C468.36 274.986 468.201 275.028 467.998 275.071C467.794 275.118 467.536 275.142 467.223 275.142C466.75 275.142 466.286 275.04 465.831 274.837C465.382 274.633 465.007 274.323 464.709 273.906C464.416 273.49 464.269 272.964 464.269 272.33V261.477ZM478.328 266.534L476.822 266.96C476.727 266.709 476.588 266.465 476.403 266.229C476.223 265.987 475.977 265.788 475.664 265.632C475.352 265.476 474.952 265.398 474.464 265.398C473.797 265.398 473.24 265.552 472.795 265.859C472.355 266.162 472.135 266.548 472.135 267.017C472.135 267.434 472.286 267.763 472.589 268.004C472.892 268.246 473.366 268.447 474.01 268.608L475.629 269.006C476.604 269.242 477.331 269.605 477.809 270.092C478.288 270.575 478.527 271.198 478.527 271.96C478.527 272.585 478.347 273.144 477.987 273.636C477.632 274.129 477.135 274.517 476.495 274.801C475.856 275.085 475.113 275.227 474.265 275.227C473.153 275.227 472.232 274.986 471.502 274.503C470.773 274.02 470.312 273.314 470.118 272.386L471.708 271.989C471.86 272.576 472.146 273.016 472.568 273.31C472.994 273.603 473.55 273.75 474.237 273.75C475.018 273.75 475.638 273.584 476.098 273.253C476.562 272.917 476.794 272.514 476.794 272.045C476.794 271.667 476.661 271.349 476.396 271.094C476.131 270.833 475.724 270.639 475.174 270.511L473.356 270.085C472.357 269.848 471.623 269.482 471.154 268.984C470.69 268.482 470.458 267.855 470.458 267.102C470.458 266.487 470.631 265.942 470.977 265.469C471.327 264.995 471.803 264.624 472.404 264.354C473.011 264.084 473.697 263.949 474.464 263.949C475.544 263.949 476.391 264.186 477.007 264.659C477.627 265.133 478.067 265.758 478.328 266.534Z" fill="#A29B9B"/>
<rect x="100" y="312" width="275" height="64" rx="14" fill="#0284C7" fill-opacity="0.09"/>
<rect x="101" y="313" width="273" height="62" rx="13" stroke="#0284C7" stroke-opacity="0.6" stroke-width="2"/>
<path d="M140.5 341.4L131.5 336.21" stroke="#0284C7" stroke-opacity="0.6" stroke-width="2" stroke-linecap="round" stroke-linejoin="round"/>
<path d="M145 348V340C145 339.649 144.907 339.305 144.732 339.001C144.556 338.698 144.304 338.445 144 338.27L137 334.27C136.696 334.094 136.351 334.002 136 334.002C135.649 334.002 135.304 334.094 135 334.27L128 338.27C127.696 338.445 127.444 338.698 127.268 339.001C127.093 339.305 127 339.649 127 340V348C127 348.351 127.093 348.695 127.268 348.999C127.444 349.303 127.696 349.555 128 349.73L135 353.73C135.304 353.906 135.649 353.998 136 353.998C136.351 353.998 136.696 353.906 137 353.73L144 349.73C144.304 349.555 144.556 349.303 144.732 348.999C144.907 348.695 145 348.351 145 348Z" stroke="#0284C7" stroke-opacity="0.6" stroke-width="2" stroke-linecap="round" stroke-linejoin="round"/>
<path d="M127.27 338.96L136 344.01L144.73 338.96" stroke="#0284C7" stroke-opacity="0.6" stroke-width="2" stroke-linecap="round" stroke-linejoin="round"/>
<path d="M136 354.08V344" stroke="#0284C7" stroke-opacity="0.6" stroke-width="2" stroke-linecap="round" stroke-linejoin="round"/>
<path d="M159.523 336.455V351H157.761V336.455H159.523ZM164.503 344.438V351H162.827V340.091H164.446V341.795H164.588C164.844 341.241 165.232 340.796 165.753 340.46C166.274 340.119 166.946 339.949 167.77 339.949C168.509 339.949 169.155 340.1 169.709 340.403C170.263 340.702 170.694 341.156 171.002 341.767C171.31 342.373 171.463 343.14 171.463 344.068V351H169.787V344.182C169.787 343.325 169.565 342.657 169.12 342.179C168.675 341.696 168.064 341.455 167.287 341.455C166.752 341.455 166.274 341.571 165.853 341.803C165.436 342.035 165.107 342.373 164.865 342.818C164.624 343.263 164.503 343.803 164.503 344.438ZM183.056 340.091L179.022 351H177.317L173.283 340.091H175.102L178.113 348.784H178.227L181.238 340.091H183.056ZM189.452 351.227C188.401 351.227 187.494 350.995 186.732 350.531C185.974 350.062 185.389 349.409 184.977 348.571C184.57 347.728 184.366 346.748 184.366 345.631C184.366 344.513 184.57 343.528 184.977 342.676C185.389 341.819 185.962 341.152 186.696 340.673C187.435 340.19 188.296 339.949 189.281 339.949C189.849 339.949 190.411 340.044 190.964 340.233C191.518 340.422 192.023 340.73 192.477 341.156C192.932 341.578 193.294 342.136 193.564 342.832C193.834 343.528 193.969 344.385 193.969 345.403V346.114H185.56V344.665H192.264C192.264 344.049 192.141 343.5 191.895 343.017C191.653 342.534 191.308 342.153 190.858 341.874C190.413 341.594 189.887 341.455 189.281 341.455C188.614 341.455 188.036 341.62 187.548 341.952C187.065 342.278 186.694 342.705 186.433 343.23C186.173 343.756 186.043 344.319 186.043 344.92V345.886C186.043 346.71 186.185 347.409 186.469 347.982C186.758 348.55 187.158 348.983 187.669 349.281C188.18 349.575 188.775 349.722 189.452 349.722C189.892 349.722 190.29 349.66 190.645 349.537C191.005 349.409 191.315 349.22 191.575 348.969C191.836 348.713 192.037 348.396 192.179 348.017L193.798 348.472C193.628 349.021 193.341 349.504 192.939 349.92C192.536 350.332 192.039 350.654 191.447 350.886C190.856 351.114 190.19 351.227 189.452 351.227ZM198.195 344.438V351H196.518V340.091H198.138V341.795H198.28C198.536 341.241 198.924 340.796 199.445 340.46C199.965 340.119 200.638 339.949 201.462 339.949C202.2 339.949 202.847 340.1 203.401 340.403C203.955 340.702 204.385 341.156 204.693 341.767C205.001 342.373 205.155 343.14 205.155 344.068V351H203.479V344.182C203.479 343.325 203.256 342.657 202.811 342.179C202.366 341.696 201.755 341.455 200.979 341.455C200.444 341.455 199.965 341.571 199.544 341.803C199.127 342.035 198.798 342.373 198.557 342.818C198.315 343.263 198.195 343.803 198.195 344.438ZM212.962 340.091V341.511H207.309V340.091H212.962ZM208.956 337.477H210.632V347.875C210.632 348.348 210.701 348.704 210.838 348.94C210.98 349.172 211.16 349.329 211.378 349.409C211.601 349.485 211.835 349.523 212.081 349.523C212.266 349.523 212.417 349.513 212.536 349.494C212.654 349.471 212.749 349.452 212.82 349.438L213.161 350.943C213.047 350.986 212.889 351.028 212.685 351.071C212.481 351.118 212.223 351.142 211.911 351.142C211.437 351.142 210.973 351.04 210.519 350.837C210.069 350.633 209.695 350.323 209.397 349.906C209.103 349.49 208.956 348.964 208.956 348.33V337.477ZM219.798 351.227C218.813 351.227 217.949 350.993 217.206 350.524C216.467 350.055 215.889 349.4 215.473 348.557C215.061 347.714 214.855 346.729 214.855 345.602C214.855 344.466 215.061 343.474 215.473 342.626C215.889 341.779 216.467 341.121 217.206 340.652C217.949 340.183 218.813 339.949 219.798 339.949C220.783 339.949 221.645 340.183 222.383 340.652C223.127 341.121 223.704 341.779 224.116 342.626C224.533 343.474 224.741 344.466 224.741 345.602C224.741 346.729 224.533 347.714 224.116 348.557C223.704 349.4 223.127 350.055 222.383 350.524C221.645 350.993 220.783 351.227 219.798 351.227ZM219.798 349.722C220.546 349.722 221.162 349.53 221.645 349.146C222.127 348.763 222.485 348.259 222.717 347.634C222.949 347.009 223.065 346.331 223.065 345.602C223.065 344.873 222.949 344.194 222.717 343.564C222.485 342.934 222.127 342.425 221.645 342.037C221.162 341.649 220.546 341.455 219.798 341.455C219.05 341.455 218.434 341.649 217.951 342.037C217.468 342.425 217.111 342.934 216.879 343.564C216.647 344.194 216.531 344.873 216.531 345.602C216.531 346.331 216.647 347.009 216.879 347.634C217.111 348.259 217.468 348.763 217.951 349.146C218.434 349.53 219.05 349.722 219.798 349.722ZM227.3 351V340.091H228.919V341.739H229.033C229.232 341.199 229.591 340.761 230.112 340.425C230.633 340.089 231.22 339.92 231.874 339.92C231.997 339.92 232.151 339.923 232.335 339.928C232.52 339.932 232.66 339.939 232.754 339.949V341.653C232.697 341.639 232.567 341.618 232.364 341.589C232.165 341.556 231.954 341.54 231.732 341.54C231.201 341.54 230.728 341.651 230.311 341.874C229.899 342.091 229.572 342.394 229.331 342.783C229.094 343.166 228.976 343.604 228.976 344.097V351H227.3ZM236.153 355.091C235.869 355.091 235.615 355.067 235.393 355.02C235.17 354.977 235.016 354.935 234.931 354.892L235.357 353.415C235.764 353.519 236.124 353.557 236.437 353.528C236.749 353.5 237.026 353.36 237.268 353.109C237.514 352.863 237.739 352.463 237.942 351.909L238.255 351.057L234.221 340.091H236.039L239.05 348.784H239.164L242.175 340.091H243.994L239.363 352.591C239.155 353.154 238.897 353.621 238.589 353.99C238.281 354.364 237.924 354.641 237.516 354.821C237.114 355.001 236.659 355.091 236.153 355.091ZM252.655 351H250.808L256.149 336.455H257.967L263.308 351H261.462L257.115 338.756H257.001L252.655 351ZM253.337 345.318H260.78V346.881H253.337V345.318ZM272.9 340.091L268.866 351H267.161L263.127 340.091H264.945L267.957 348.784H268.07L271.082 340.091H272.9ZM277.99 351.256C277.299 351.256 276.672 351.125 276.108 350.865C275.545 350.6 275.097 350.219 274.766 349.722C274.435 349.22 274.269 348.614 274.269 347.903C274.269 347.278 274.392 346.772 274.638 346.384C274.884 345.991 275.213 345.683 275.625 345.46C276.037 345.238 276.492 345.072 276.989 344.963C277.491 344.849 277.995 344.759 278.502 344.693C279.165 344.608 279.702 344.544 280.114 344.501C280.531 344.454 280.834 344.376 281.023 344.267C281.217 344.158 281.314 343.969 281.314 343.699V343.642C281.314 342.941 281.123 342.397 280.739 342.009C280.36 341.62 279.785 341.426 279.013 341.426C278.213 341.426 277.586 341.601 277.131 341.952C276.676 342.302 276.357 342.676 276.172 343.074L274.581 342.506C274.865 341.843 275.244 341.327 275.718 340.957C276.196 340.583 276.717 340.323 277.28 340.176C277.848 340.025 278.407 339.949 278.956 339.949C279.307 339.949 279.709 339.991 280.164 340.077C280.623 340.157 281.066 340.325 281.492 340.581C281.923 340.837 282.28 341.223 282.564 341.739C282.848 342.255 282.99 342.946 282.99 343.812V351H281.314V349.523H281.229C281.115 349.759 280.926 350.013 280.661 350.283C280.396 350.553 280.043 350.782 279.603 350.972C279.162 351.161 278.625 351.256 277.99 351.256ZM278.246 349.75C278.909 349.75 279.468 349.62 279.922 349.359C280.382 349.099 280.727 348.763 280.959 348.351C281.196 347.939 281.314 347.506 281.314 347.051V345.517C281.243 345.602 281.087 345.68 280.846 345.751C280.609 345.818 280.334 345.877 280.022 345.929C279.714 345.976 279.413 346.019 279.12 346.057C278.831 346.09 278.596 346.118 278.417 346.142C277.981 346.199 277.574 346.291 277.195 346.419C276.821 346.542 276.518 346.729 276.286 346.98C276.059 347.226 275.945 347.562 275.945 347.989C275.945 348.571 276.16 349.011 276.591 349.31C277.027 349.603 277.578 349.75 278.246 349.75ZM286.05 351V340.091H287.726V351H286.05ZM286.902 338.273C286.575 338.273 286.294 338.161 286.057 337.939C285.825 337.716 285.709 337.449 285.709 337.136C285.709 336.824 285.825 336.556 286.057 336.334C286.294 336.111 286.575 336 286.902 336C287.229 336 287.508 336.111 287.74 336.334C287.977 336.556 288.095 336.824 288.095 337.136C288.095 337.449 287.977 337.716 287.74 337.939C287.508 338.161 287.229 338.273 286.902 338.273ZM292.472 336.455V351H290.796V336.455H292.472ZM298.752 351.256C298.061 351.256 297.433 351.125 296.87 350.865C296.307 350.6 295.859 350.219 295.528 349.722C295.196 349.22 295.031 348.614 295.031 347.903C295.031 347.278 295.154 346.772 295.4 346.384C295.646 345.991 295.975 345.683 296.387 345.46C296.799 345.238 297.254 345.072 297.751 344.963C298.253 344.849 298.757 344.759 299.263 344.693C299.926 344.608 300.464 344.544 300.876 344.501C301.292 344.454 301.595 344.376 301.785 344.267C301.979 344.158 302.076 343.969 302.076 343.699V343.642C302.076 342.941 301.884 342.397 301.501 342.009C301.122 341.62 300.547 341.426 299.775 341.426C298.975 341.426 298.347 341.601 297.893 341.952C297.438 342.302 297.119 342.676 296.934 343.074L295.343 342.506C295.627 341.843 296.006 341.327 296.479 340.957C296.958 340.583 297.478 340.323 298.042 340.176C298.61 340.025 299.169 339.949 299.718 339.949C300.068 339.949 300.471 339.991 300.925 340.077C301.385 340.157 301.827 340.325 302.254 340.581C302.684 340.837 303.042 341.223 303.326 341.739C303.61 342.255 303.752 342.946 303.752 343.812V351H302.076V349.523H301.991C301.877 349.759 301.688 350.013 301.423 350.283C301.157 350.553 300.805 350.782 300.364 350.972C299.924 351.161 299.387 351.256 298.752 351.256ZM299.008 349.75C299.671 349.75 300.229 349.62 300.684 349.359C301.143 349.099 301.489 348.763 301.721 348.351C301.958 347.939 302.076 347.506 302.076 347.051V345.517C302.005 345.602 301.849 345.68 301.607 345.751C301.371 345.818 301.096 345.877 300.783 345.929C300.476 345.976 300.175 346.019 299.881 346.057C299.593 346.09 299.358 346.118 299.178 346.142C298.743 346.199 298.335 346.291 297.957 346.419C297.583 346.542 297.28 346.729 297.048 346.98C296.82 347.226 296.707 347.562 296.707 347.989C296.707 348.571 296.922 349.011 297.353 349.31C297.789 349.603 298.34 349.75 299.008 349.75ZM307.039 351V336.455H308.715V341.824H308.857C308.98 341.634 309.15 341.393 309.368 341.099C309.591 340.801 309.908 340.536 310.32 340.304C310.737 340.067 311.3 339.949 312.01 339.949C312.929 339.949 313.739 340.179 314.439 340.638C315.14 341.097 315.687 341.748 316.08 342.591C316.473 343.434 316.669 344.428 316.669 345.574C316.669 346.729 316.473 347.731 316.08 348.578C315.687 349.421 315.142 350.074 314.446 350.538C313.75 350.998 312.948 351.227 312.039 351.227C311.338 351.227 310.777 351.111 310.355 350.879C309.934 350.643 309.61 350.375 309.382 350.077C309.155 349.774 308.98 349.523 308.857 349.324H308.658V351H307.039ZM308.686 345.545C308.686 346.369 308.807 347.096 309.049 347.726C309.29 348.351 309.643 348.841 310.107 349.196C310.571 349.546 311.139 349.722 311.811 349.722C312.512 349.722 313.097 349.537 313.566 349.168C314.039 348.794 314.394 348.292 314.631 347.662C314.873 347.027 314.993 346.322 314.993 345.545C314.993 344.778 314.875 344.087 314.638 343.472C314.406 342.851 314.053 342.361 313.58 342.001C313.111 341.637 312.522 341.455 311.811 341.455C311.13 341.455 310.557 341.627 310.093 341.973C309.629 342.314 309.278 342.792 309.042 343.408C308.805 344.018 308.686 344.731 308.686 345.545ZM319.233 351V340.091H320.909V351H319.233ZM320.086 338.273C319.759 338.273 319.477 338.161 319.24 337.939C319.008 337.716 318.892 337.449 318.892 337.136C318.892 336.824 319.008 336.556 319.24 336.334C319.477 336.111 319.759 336 320.086 336C320.412 336 320.692 336.111 320.924 336.334C321.16 336.556 321.279 336.824 321.279 337.136C321.279 337.449 321.16 337.716 320.924 337.939C320.692 338.161 320.412 338.273 320.086 338.273ZM325.656 336.455V351H323.979V336.455H325.656ZM328.725 351V340.091H330.402V351H328.725ZM329.578 338.273C329.251 338.273 328.969 338.161 328.733 337.939C328.501 337.716 328.385 337.449 328.385 337.136C328.385 336.824 328.501 336.556 328.733 336.334C328.969 336.111 329.251 336 329.578 336C329.904 336 330.184 336.111 330.416 336.334C330.653 336.556 330.771 336.824 330.771 337.136C330.771 337.449 330.653 337.716 330.416 337.939C330.184 338.161 329.904 338.273 329.578 338.273ZM338.216 340.091V341.511H332.562V340.091H338.216ZM334.21 337.477H335.886V347.875C335.886 348.348 335.955 348.704 336.092 348.94C336.234 349.172 336.414 349.329 336.632 349.409C336.855 349.485 337.089 349.523 337.335 349.523C337.52 349.523 337.671 349.513 337.79 349.494C337.908 349.471 338.003 349.452 338.074 349.438L338.415 350.943C338.301 350.986 338.143 351.028 337.939 351.071C337.735 351.118 337.477 351.142 337.165 351.142C336.691 351.142 336.227 351.04 335.773 350.837C335.323 350.633 334.949 350.323 334.651 349.906C334.357 349.49 334.21 348.964 334.21 348.33V337.477ZM341.817 355.091C341.533 355.091 341.279 355.067 341.057 355.02C340.834 354.977 340.68 354.935 340.595 354.892L341.021 353.415C341.429 353.519 341.788 353.557 342.101 353.528C342.413 353.5 342.69 353.36 342.932 353.109C343.178 352.863 343.403 352.463 343.607 351.909L343.919 351.057L339.885 340.091H341.703L344.714 348.784H344.828L347.839 340.091H349.658L345.027 352.591C344.819 353.154 344.561 353.621 344.253 353.99C343.945 354.364 343.588 354.641 343.18 354.821C342.778 355.001 342.323 355.091 341.817 355.091Z" fill="#0284C7" fill-opacity="0.6"/>
<rect x="101" y="389" width="273" height="62" rx="13" stroke="#D9D9D9" stroke-width="2"/>
<path d="M131.245 422.781L134.238 418.891L137.652 421.573L140.581 417.793" stroke="#A29B9B" stroke-width="1.5" stroke-linecap="round" stroke-linejoin="round"/>
<circle cx="143.995" cy="412.2" r="1.9222" stroke="#A29B9B" stroke-width="1.5" stroke-linecap="round" stroke-linejoin="round"/>
<path d="M138.924 411.12H131.657C128.645 411.12 126.778 413.253 126.778 416.264V424.347C126.778 427.358 128.609 429.482 131.657 429.482H140.261C143.272 429.482 145.14 427.358 145.14 424.347V417.308" stroke="#A29B9B" stroke-width="1.5" stroke-linecap="round" stroke-linejoin="round"/>
<path d="M159.523 412.455V427H157.761V412.455H159.523ZM164.503 420.438V427H162.827V416.091H164.446V417.795H164.588C164.844 417.241 165.232 416.796 165.753 416.46C166.274 416.119 166.946 415.949 167.77 415.949C168.509 415.949 169.155 416.1 169.709 416.403C170.263 416.702 170.694 417.156 171.002 417.767C171.31 418.373 171.463 419.14 171.463 420.068V427H169.787V420.182C169.787 419.325 169.565 418.657 169.12 418.179C168.675 417.696 168.064 417.455 167.287 417.455C166.752 417.455 166.274 417.571 165.853 417.803C165.436 418.035 165.107 418.373 164.865 418.818C164.624 419.263 164.503 419.803 164.503 420.438ZM183.056 416.091L179.022 427H177.317L173.283 416.091H175.102L178.113 424.784H178.227L181.238 416.091H183.056ZM189.452 427.227C188.401 427.227 187.494 426.995 186.732 426.531C185.974 426.062 185.389 425.409 184.977 424.571C184.57 423.728 184.366 422.748 184.366 421.631C184.366 420.513 184.57 419.528 184.977 418.676C185.389 417.819 185.962 417.152 186.696 416.673C187.435 416.19 188.296 415.949 189.281 415.949C189.849 415.949 190.411 416.044 190.964 416.233C191.518 416.422 192.023 416.73 192.477 417.156C192.932 417.578 193.294 418.136 193.564 418.832C193.834 419.528 193.969 420.385 193.969 421.403V422.114H185.56V420.665H192.264C192.264 420.049 192.141 419.5 191.895 419.017C191.653 418.534 191.308 418.153 190.858 417.874C190.413 417.594 189.887 417.455 189.281 417.455C188.614 417.455 188.036 417.62 187.548 417.952C187.065 418.278 186.694 418.705 186.433 419.23C186.173 419.756 186.043 420.319 186.043 420.92V421.886C186.043 422.71 186.185 423.409 186.469 423.982C186.758 424.55 187.158 424.983 187.669 425.281C188.18 425.575 188.775 425.722 189.452 425.722C189.892 425.722 190.29 425.66 190.645 425.537C191.005 425.409 191.315 425.22 191.575 424.969C191.836 424.713 192.037 424.396 192.179 424.017L193.798 424.472C193.628 425.021 193.341 425.504 192.939 425.92C192.536 426.332 192.039 426.654 191.447 426.886C190.856 427.114 190.19 427.227 189.452 427.227ZM198.195 420.438V427H196.518V416.091H198.138V417.795H198.28C198.536 417.241 198.924 416.796 199.445 416.46C199.965 416.119 200.638 415.949 201.462 415.949C202.2 415.949 202.847 416.1 203.401 416.403C203.955 416.702 204.385 417.156 204.693 417.767C205.001 418.373 205.155 419.14 205.155 420.068V427H203.479V420.182C203.479 419.325 203.256 418.657 202.811 418.179C202.366 417.696 201.755 417.455 200.979 417.455C200.444 417.455 199.965 417.571 199.544 417.803C199.127 418.035 198.798 418.373 198.557 418.818C198.315 419.263 198.195 419.803 198.195 420.438ZM212.962 416.091V417.511H207.309V416.091H212.962ZM208.956 413.477H210.632V423.875C210.632 424.348 210.701 424.704 210.838 424.94C210.98 425.172 211.16 425.329 211.378 425.409C211.601 425.485 211.835 425.523 212.081 425.523C212.266 425.523 212.417 425.513 212.536 425.494C212.654 425.471 212.749 425.452 212.82 425.438L213.161 426.943C213.047 426.986 212.889 427.028 212.685 427.071C212.481 427.118 212.223 427.142 211.911 427.142C211.437 427.142 210.973 427.04 210.519 426.837C210.069 426.633 209.695 426.323 209.397 425.906C209.103 425.49 208.956 424.964 208.956 424.33V413.477ZM219.798 427.227C218.813 427.227 217.949 426.993 217.206 426.524C216.467 426.055 215.889 425.4 215.473 424.557C215.061 423.714 214.855 422.729 214.855 421.602C214.855 420.466 215.061 419.474 215.473 418.626C215.889 417.779 216.467 417.121 217.206 416.652C217.949 416.183 218.813 415.949 219.798 415.949C220.783 415.949 221.645 416.183 222.383 416.652C223.127 417.121 223.704 417.779 224.116 418.626C224.533 419.474 224.741 420.466 224.741 421.602C224.741 422.729 224.533 423.714 224.116 424.557C223.704 425.4 223.127 426.055 222.383 426.524C221.645 426.993 220.783 427.227 219.798 427.227ZM219.798 425.722C220.546 425.722 221.162 425.53 221.645 425.146C222.127 424.763 222.485 424.259 222.717 423.634C222.949 423.009 223.065 422.331 223.065 421.602C223.065 420.873 222.949 420.194 222.717 419.564C222.485 418.934 222.127 418.425 221.645 418.037C221.162 417.649 220.546 417.455 219.798 417.455C219.05 417.455 218.434 417.649 217.951 418.037C217.468 418.425 217.111 418.934 216.879 419.564C216.647 420.194 216.531 420.873 216.531 421.602C216.531 422.331 216.647 423.009 216.879 423.634C217.111 424.259 217.468 424.763 217.951 425.146C218.434 425.53 219.05 425.722 219.798 425.722ZM227.3 427V416.091H228.919V417.739H229.033C229.232 417.199 229.591 416.761 230.112 416.425C230.633 416.089 231.22 415.92 231.874 415.92C231.997 415.92 232.151 415.923 232.335 415.928C232.52 415.932 232.66 415.939 232.754 415.949V417.653C232.697 417.639 232.567 417.618 232.364 417.589C232.165 417.556 231.954 417.54 231.732 417.54C231.201 417.54 230.728 417.651 230.311 417.874C229.899 418.091 229.572 418.394 229.331 418.783C229.094 419.166 228.976 419.604 228.976 420.097V427H227.3ZM236.153 431.091C235.869 431.091 235.615 431.067 235.393 431.02C235.17 430.977 235.016 430.935 234.931 430.892L235.357 429.415C235.764 429.519 236.124 429.557 236.437 429.528C236.749 429.5 237.026 429.36 237.268 429.109C237.514 428.863 237.739 428.463 237.942 427.909L238.255 427.057L234.221 416.091H236.039L239.05 424.784H239.164L242.175 416.091H243.994L239.363 428.591C239.155 429.154 238.897 429.621 238.589 429.99C238.281 430.364 237.924 430.641 237.516 430.821C237.114 431.001 236.659 431.091 236.153 431.091ZM252.655 427H250.808L256.149 412.455H257.967L263.308 427H261.462L257.115 414.756H257.001L252.655 427ZM253.337 421.318H260.78V422.881H253.337V421.318ZM272.9 416.091L268.866 427H267.161L263.127 416.091H264.945L267.957 424.784H268.07L271.082 416.091H272.9ZM277.99 427.256C277.299 427.256 276.672 427.125 276.108 426.865C275.545 426.6 275.097 426.219 274.766 425.722C274.435 425.22 274.269 424.614 274.269 423.903C274.269 423.278 274.392 422.772 274.638 422.384C274.884 421.991 275.213 421.683 275.625 421.46C276.037 421.238 276.492 421.072 276.989 420.963C277.491 420.849 277.995 420.759 278.502 420.693C279.165 420.608 279.702 420.544 280.114 420.501C280.531 420.454 280.834 420.376 281.023 420.267C281.217 420.158 281.314 419.969 281.314 419.699V419.642C281.314 418.941 281.123 418.397 280.739 418.009C280.36 417.62 279.785 417.426 279.013 417.426C278.213 417.426 277.586 417.601 277.131 417.952C276.676 418.302 276.357 418.676 276.172 419.074L274.581 418.506C274.865 417.843 275.244 417.327 275.718 416.957C276.196 416.583 276.717 416.323 277.28 416.176C277.848 416.025 278.407 415.949 278.956 415.949C279.307 415.949 279.709 415.991 280.164 416.077C280.623 416.157 281.066 416.325 281.492 416.581C281.923 416.837 282.28 417.223 282.564 417.739C282.848 418.255 282.99 418.946 282.99 419.812V427H281.314V425.523H281.229C281.115 425.759 280.926 426.013 280.661 426.283C280.396 426.553 280.043 426.782 279.603 426.972C279.162 427.161 278.625 427.256 277.99 427.256ZM278.246 425.75C278.909 425.75 279.468 425.62 279.922 425.359C280.382 425.099 280.727 424.763 280.959 424.351C281.196 423.939 281.314 423.506 281.314 423.051V421.517C281.243 421.602 281.087 421.68 280.846 421.751C280.609 421.818 280.334 421.877 280.022 421.929C279.714 421.976 279.413 422.019 279.12 422.057C278.831 422.09 278.596 422.118 278.417 422.142C277.981 422.199 277.574 422.291 277.195 422.419C276.821 422.542 276.518 422.729 276.286 422.98C276.059 423.226 275.945 423.562 275.945 423.989C275.945 424.571 276.16 425.011 276.591 425.31C277.027 425.603 277.578 425.75 278.246 425.75ZM286.05 427V416.091H287.726V427H286.05ZM286.902 414.273C286.575 414.273 286.294 414.161 286.057 413.939C285.825 413.716 285.709 413.449 285.709 413.136C285.709 412.824 285.825 412.556 286.057 412.334C286.294 412.111 286.575 412 286.902 412C287.229 412 287.508 412.111 287.74 412.334C287.977 412.556 288.095 412.824 288.095 413.136C288.095 413.449 287.977 413.716 287.74 413.939C287.508 414.161 287.229 414.273 286.902 414.273ZM292.472 412.455V427H290.796V412.455H292.472ZM298.752 427.256C298.061 427.256 297.433 427.125 296.87 426.865C296.307 426.6 295.859 426.219 295.528 425.722C295.196 425.22 295.031 424.614 295.031 423.903C295.031 423.278 295.154 422.772 295.4 422.384C295.646 421.991 295.975 421.683 296.387 421.46C296.799 421.238 297.254 421.072 297.751 420.963C298.253 420.849 298.757 420.759 299.263 420.693C299.926 420.608 300.464 420.544 300.876 420.501C301.292 420.454 301.595 420.376 301.785 420.267C301.979 420.158 302.076 419.969 302.076 419.699V419.642C302.076 418.941 301.884 418.397 301.501 418.009C301.122 417.62 300.547 417.426 299.775 417.426C298.975 417.426 298.347 417.601 297.893 417.952C297.438 418.302 297.119 418.676 296.934 419.074L295.343 418.506C295.627 417.843 296.006 417.327 296.479 416.957C296.958 416.583 297.478 416.323 298.042 416.176C298.61 416.025 299.169 415.949 299.718 415.949C300.068 415.949 300.471 415.991 300.925 416.077C301.385 416.157 301.827 416.325 302.254 416.581C302.684 416.837 303.042 417.223 303.326 417.739C303.61 418.255 303.752 418.946 303.752 419.812V427H302.076V425.523H301.991C301.877 425.759 301.688 426.013 301.423 426.283C301.157 426.553 300.805 426.782 300.364 426.972C299.924 427.161 299.387 427.256 298.752 427.256ZM299.008 425.75C299.671 425.75 300.229 425.62 300.684 425.359C301.143 425.099 301.489 424.763 301.721 424.351C301.958 423.939 302.076 423.506 302.076 423.051V421.517C302.005 421.602 301.849 421.68 301.607 421.751C301.371 421.818 301.096 421.877 300.783 421.929C300.476 421.976 300.175 422.019 299.881 422.057C299.593 422.09 299.358 422.118 299.178 422.142C298.743 422.199 298.335 422.291 297.957 422.419C297.583 422.542 297.28 422.729 297.048 422.98C296.82 423.226 296.707 423.562 296.707 423.989C296.707 424.571 296.922 425.011 297.353 425.31C297.789 425.603 298.34 425.75 299.008 425.75ZM307.039 427V412.455H308.715V417.824H308.857C308.98 417.634 309.15 417.393 309.368 417.099C309.591 416.801 309.908 416.536 310.32 416.304C310.737 416.067 311.3 415.949 312.01 415.949C312.929 415.949 313.739 416.179 314.439 416.638C315.14 417.097 315.687 417.748 316.08 418.591C316.473 419.434 316.669 420.428 316.669 421.574C316.669 422.729 316.473 423.731 316.08 424.578C315.687 425.421 315.142 426.074 314.446 426.538C313.75 426.998 312.948 427.227 312.039 427.227C311.338 427.227 310.777 427.111 310.355 426.879C309.934 426.643 309.61 426.375 309.382 426.077C309.155 425.774 308.98 425.523 308.857 425.324H308.658V427H307.039ZM308.686 421.545C308.686 422.369 308.807 423.096 309.049 423.726C309.29 424.351 309.643 424.841 310.107 425.196C310.571 425.546 311.139 425.722 311.811 425.722C312.512 425.722 313.097 425.537 313.566 425.168C314.039 424.794 314.394 424.292 314.631 423.662C314.873 423.027 314.993 422.322 314.993 421.545C314.993 420.778 314.875 420.087 314.638 419.472C314.406 418.851 314.053 418.361 313.58 418.001C313.111 417.637 312.522 417.455 311.811 417.455C311.13 417.455 310.557 417.627 310.093 417.973C309.629 418.314 309.278 418.792 309.042 419.408C308.805 420.018 308.686 420.731 308.686 421.545ZM319.233 427V416.091H320.909V427H319.233ZM320.086 414.273C319.759 414.273 319.477 414.161 319.24 413.939C319.008 413.716 318.892 413.449 318.892 413.136C318.892 412.824 319.008 412.556 319.24 412.334C319.477 412.111 319.759 412 320.086 412C320.412 412 320.692 412.111 320.924 412.334C321.16 412.556 321.279 412.824 321.279 413.136C321.279 413.449 321.16 413.716 320.924 413.939C320.692 414.161 320.412 414.273 320.086 414.273ZM325.656 412.455V427H323.979V412.455H325.656ZM328.725 427V416.091H330.402V427H328.725ZM329.578 414.273C329.251 414.273 328.969 414.161 328.733 413.939C328.501 413.716 328.385 413.449 328.385 413.136C328.385 412.824 328.501 412.556 328.733 412.334C328.969 412.111 329.251 412 329.578 412C329.904 412 330.184 412.111 330.416 412.334C330.653 412.556 330.771 412.824 330.771 413.136C330.771 413.449 330.653 413.716 330.416 413.939C330.184 414.161 329.904 414.273 329.578 414.273ZM338.216 416.091V417.511H332.562V416.091H338.216ZM334.21 413.477H335.886V423.875C335.886 424.348 335.955 424.704 336.092 424.94C336.234 425.172 336.414 425.329 336.632 425.409C336.855 425.485 337.089 425.523 337.335 425.523C337.52 425.523 337.671 425.513 337.79 425.494C337.908 425.471 338.003 425.452 338.074 425.438L338.415 426.943C338.301 426.986 338.143 427.028 337.939 427.071C337.735 427.118 337.477 427.142 337.165 427.142C336.691 427.142 336.227 427.04 335.773 426.837C335.323 426.633 334.949 426.323 334.651 425.906C334.357 425.49 334.21 424.964 334.21 424.33V413.477ZM341.817 431.091C341.533 431.091 341.279 431.067 341.057 431.02C340.834 430.977 340.68 430.935 340.595 430.892L341.021 429.415C341.429 429.519 341.788 429.557 342.101 429.528C342.413 429.5 342.69 429.36 342.932 429.109C343.178 428.863 343.403 428.463 343.607 427.909L343.919 427.057L339.885 416.091H341.703L344.714 424.784H344.828L347.839 416.091H349.658L345.027 428.591C344.819 429.154 344.561 429.621 344.253 429.99C343.945 430.364 343.588 430.641 343.18 430.821C342.778 431.001 342.323 431.091 341.817 431.091Z" fill="#A29B9B"/>
<rect x="388" y="389" width="134" height="62" rx="13" stroke="#D9D9D9" stroke-width="2"/>
<path d="M423 416C427.971 416 432 414.657 432 413C432 411.343 427.971 410 423 410C418.029 410 414 411.343 414 413C414 414.657 418.029 416 423 416Z" stroke="#A29B9B" stroke-width="2" stroke-linecap="round" stroke-linejoin="round"/>
<path d="M432 420C432 421.66 428 423 423 423C418 423 414 421.66 414 420" stroke="#A29B9B" stroke-width="2" stroke-linecap="round" stroke-linejoin="round"/>
<path d="M414 413V427C414 428.66 418 430 423 430C428 430 432 428.66 432 427V413" stroke="#A29B9B" stroke-width="2" stroke-linecap="round" stroke-linejoin="round"/>
<path d="M443.966 414.017V412.455H454.875V414.017H450.301V427H448.54V414.017H443.966ZM459.092 427.256C458.401 427.256 457.773 427.125 457.21 426.865C456.646 426.6 456.199 426.219 455.868 425.722C455.536 425.22 455.37 424.614 455.37 423.903C455.37 423.278 455.493 422.772 455.74 422.384C455.986 421.991 456.315 421.683 456.727 421.46C457.139 421.238 457.593 421.072 458.091 420.963C458.592 420.849 459.097 420.759 459.603 420.693C460.266 420.608 460.804 420.544 461.216 420.501C461.632 420.454 461.935 420.376 462.125 420.267C462.319 420.158 462.416 419.969 462.416 419.699V419.642C462.416 418.941 462.224 418.397 461.841 418.009C461.462 417.62 460.886 417.426 460.115 417.426C459.315 417.426 458.687 417.601 458.233 417.952C457.778 418.302 457.458 418.676 457.274 419.074L455.683 418.506C455.967 417.843 456.346 417.327 456.819 416.957C457.297 416.583 457.818 416.323 458.382 416.176C458.95 416.025 459.509 415.949 460.058 415.949C460.408 415.949 460.811 415.991 461.265 416.077C461.725 416.157 462.167 416.325 462.593 416.581C463.024 416.837 463.382 417.223 463.666 417.739C463.95 418.255 464.092 418.946 464.092 419.812V427H462.416V425.523H462.331C462.217 425.759 462.028 426.013 461.762 426.283C461.497 426.553 461.145 426.782 460.704 426.972C460.264 427.161 459.726 427.256 459.092 427.256ZM459.348 425.75C460.011 425.75 460.569 425.62 461.024 425.359C461.483 425.099 461.829 424.763 462.061 424.351C462.297 423.939 462.416 423.506 462.416 423.051V421.517C462.345 421.602 462.189 421.68 461.947 421.751C461.71 421.818 461.436 421.877 461.123 421.929C460.815 421.976 460.515 422.019 460.221 422.057C459.932 422.09 459.698 422.118 459.518 422.142C459.083 422.199 458.675 422.291 458.297 422.419C457.922 422.542 457.619 422.729 457.387 422.98C457.16 423.226 457.047 423.562 457.047 423.989C457.047 424.571 457.262 425.011 457.693 425.31C458.128 425.603 458.68 425.75 459.348 425.75ZM468.401 416.091L471.015 420.551L473.629 416.091H475.56L472.038 421.545L475.56 427H473.629L471.015 422.767L468.401 427H466.469L469.935 421.545L466.469 416.091H468.401ZM482.077 427.227C481.026 427.227 480.119 426.995 479.357 426.531C478.599 426.062 478.014 425.409 477.602 424.571C477.195 423.728 476.991 422.748 476.991 421.631C476.991 420.513 477.195 419.528 477.602 418.676C478.014 417.819 478.587 417.152 479.321 416.673C480.06 416.19 480.921 415.949 481.906 415.949C482.474 415.949 483.036 416.044 483.589 416.233C484.143 416.422 484.648 416.73 485.102 417.156C485.557 417.578 485.919 418.136 486.189 418.832C486.459 419.528 486.594 420.385 486.594 421.403V422.114H478.185V420.665H484.889C484.889 420.049 484.766 419.5 484.52 419.017C484.278 418.534 483.933 418.153 483.483 417.874C483.038 417.594 482.512 417.455 481.906 417.455C481.239 417.455 480.661 417.62 480.173 417.952C479.69 418.278 479.319 418.705 479.058 419.23C478.798 419.756 478.668 420.319 478.668 420.92V421.886C478.668 422.71 478.81 423.409 479.094 423.982C479.383 424.55 479.783 424.983 480.294 425.281C480.805 425.575 481.4 425.722 482.077 425.722C482.517 425.722 482.915 425.66 483.27 425.537C483.63 425.409 483.94 425.22 484.2 424.969C484.461 424.713 484.662 424.396 484.804 424.017L486.423 424.472C486.253 425.021 485.966 425.504 485.564 425.92C485.161 426.332 484.664 426.654 484.072 426.886C483.481 427.114 482.815 427.227 482.077 427.227ZM496.871 418.534L495.365 418.96C495.27 418.709 495.131 418.465 494.946 418.229C494.766 417.987 494.52 417.788 494.207 417.632C493.895 417.476 493.495 417.398 493.007 417.398C492.339 417.398 491.783 417.552 491.338 417.859C490.898 418.162 490.678 418.548 490.678 419.017C490.678 419.434 490.829 419.763 491.132 420.004C491.435 420.246 491.909 420.447 492.553 420.608L494.172 421.006C495.147 421.242 495.874 421.605 496.352 422.092C496.83 422.575 497.07 423.198 497.07 423.96C497.07 424.585 496.89 425.144 496.53 425.636C496.175 426.129 495.678 426.517 495.038 426.801C494.399 427.085 493.656 427.227 492.808 427.227C491.696 427.227 490.775 426.986 490.045 426.503C489.316 426.02 488.855 425.314 488.661 424.386L490.251 423.989C490.403 424.576 490.689 425.016 491.111 425.31C491.537 425.603 492.093 425.75 492.78 425.75C493.561 425.75 494.181 425.584 494.641 425.253C495.105 424.917 495.337 424.514 495.337 424.045C495.337 423.667 495.204 423.349 494.939 423.094C494.674 422.833 494.267 422.639 493.717 422.511L491.899 422.085C490.9 421.848 490.166 421.482 489.697 420.984C489.233 420.482 489.001 419.855 489.001 419.102C489.001 418.487 489.174 417.942 489.52 417.469C489.87 416.995 490.346 416.624 490.947 416.354C491.554 416.084 492.24 415.949 493.007 415.949C494.087 415.949 494.934 416.186 495.55 416.659C496.17 417.133 496.61 417.758 496.871 418.534Z" fill="#A29B9B"/>
<rect x="388" y="313" width="143" height="62" rx="13" stroke="#D9D9D9" stroke-width="2"/>
<path d="M423 333V355" stroke="#A29B9B" stroke-width="2" stroke-linecap="round" stroke-linejoin="round"/>
<path d="M428 337H420.5C419.572 337 418.682 337.369 418.025 338.025C417.369 338.682 417 339.572 417 340.5C417 341.428 417.369 342.318 418.025 342.975C418.682 343.631 419.572 344 420.5 344H425.5C426.428 344 427.318 344.369 427.975 345.025C428.631 345.682 429 346.572 429 347.5C429 348.428 428.631 349.318 427.975 349.975C427.318 350.631 426.428 351 425.5 351H417" stroke="#A29B9B" stroke-width="2" stroke-linecap="round" stroke-linejoin="round"/>
<path d="M444.761 351V336.455H449.676C450.817 336.455 451.75 336.661 452.474 337.072C453.204 337.48 453.743 338.031 454.094 338.727C454.444 339.423 454.619 340.2 454.619 341.057C454.619 341.914 454.444 342.693 454.094 343.393C453.748 344.094 453.213 344.653 452.489 345.07C451.764 345.482 450.836 345.688 449.705 345.688H446.182V344.125H449.648C450.429 344.125 451.056 343.99 451.53 343.72C452.003 343.45 452.347 343.086 452.56 342.626C452.777 342.162 452.886 341.639 452.886 341.057C452.886 340.474 452.777 339.954 452.56 339.494C452.347 339.035 452.001 338.675 451.523 338.415C451.045 338.15 450.41 338.017 449.619 338.017H446.523V351H444.761ZM457.229 351V340.091H458.849V341.739H458.962C459.161 341.199 459.521 340.761 460.042 340.425C460.563 340.089 461.15 339.92 461.803 339.92C461.926 339.92 462.08 339.923 462.265 339.928C462.45 339.932 462.589 339.939 462.684 339.949V341.653C462.627 341.639 462.497 341.618 462.293 341.589C462.094 341.556 461.884 341.54 461.661 341.54C461.131 341.54 460.657 341.651 460.241 341.874C459.829 342.091 459.502 342.394 459.261 342.783C459.024 343.166 458.906 343.604 458.906 344.097V351H457.229ZM464.671 351V340.091H466.347V351H464.671ZM465.523 338.273C465.196 338.273 464.915 338.161 464.678 337.939C464.446 337.716 464.33 337.449 464.33 337.136C464.33 336.824 464.446 336.556 464.678 336.334C464.915 336.111 465.196 336 465.523 336C465.85 336 466.129 336.111 466.361 336.334C466.598 336.556 466.716 336.824 466.716 337.136C466.716 337.449 466.598 337.716 466.361 337.939C466.129 338.161 465.85 338.273 465.523 338.273ZM473.849 351.227C472.826 351.227 471.945 350.986 471.207 350.503C470.468 350.02 469.9 349.355 469.502 348.507C469.104 347.66 468.906 346.691 468.906 345.602C468.906 344.494 469.109 343.517 469.516 342.669C469.928 341.817 470.501 341.152 471.235 340.673C471.974 340.19 472.835 339.949 473.82 339.949C474.587 339.949 475.279 340.091 475.894 340.375C476.51 340.659 477.014 341.057 477.407 341.568C477.8 342.08 478.044 342.676 478.138 343.358H476.462C476.335 342.861 476.05 342.42 475.61 342.037C475.174 341.649 474.587 341.455 473.849 341.455C473.195 341.455 472.622 341.625 472.13 341.966C471.642 342.302 471.261 342.778 470.987 343.393C470.717 344.004 470.582 344.722 470.582 345.545C470.582 346.388 470.714 347.122 470.979 347.747C471.249 348.372 471.628 348.857 472.116 349.203C472.608 349.549 473.186 349.722 473.849 349.722C474.284 349.722 474.68 349.646 475.035 349.494C475.39 349.343 475.691 349.125 475.937 348.841C476.183 348.557 476.358 348.216 476.462 347.818H478.138C478.044 348.462 477.809 349.042 477.435 349.558C477.066 350.07 476.576 350.477 475.965 350.78C475.359 351.078 474.654 351.227 473.849 351.227ZM480.589 351V340.091H482.265V351H480.589ZM481.441 338.273C481.114 338.273 480.833 338.161 480.596 337.939C480.364 337.716 480.248 337.449 480.248 337.136C480.248 336.824 480.364 336.556 480.596 336.334C480.833 336.111 481.114 336 481.441 336C481.768 336 482.047 336.111 482.279 336.334C482.516 336.556 482.634 336.824 482.634 337.136C482.634 337.449 482.516 337.716 482.279 337.939C482.047 338.161 481.768 338.273 481.441 338.273ZM487.011 344.438V351H485.335V340.091H486.954V341.795H487.096C487.352 341.241 487.74 340.796 488.261 340.46C488.782 340.119 489.454 339.949 490.278 339.949C491.017 339.949 491.663 340.1 492.217 340.403C492.771 340.702 493.202 341.156 493.51 341.767C493.817 342.373 493.971 343.14 493.971 344.068V351H492.295V344.182C492.295 343.325 492.073 342.657 491.627 342.179C491.182 341.696 490.572 341.455 489.795 341.455C489.26 341.455 488.782 341.571 488.36 341.803C487.944 342.035 487.615 342.373 487.373 342.818C487.132 343.263 487.011 343.803 487.011 344.438ZM501.438 355.318C500.628 355.318 499.932 355.214 499.349 355.006C498.767 354.802 498.282 354.532 497.893 354.196C497.51 353.865 497.205 353.509 496.977 353.131L498.312 352.193C498.464 352.392 498.656 352.619 498.888 352.875C499.12 353.135 499.437 353.36 499.839 353.55C500.247 353.744 500.779 353.841 501.438 353.841C502.318 353.841 503.045 353.628 503.618 353.202C504.191 352.776 504.477 352.108 504.477 351.199V348.983H504.335C504.212 349.182 504.037 349.428 503.81 349.722C503.587 350.01 503.265 350.268 502.844 350.496C502.427 350.718 501.864 350.83 501.153 350.83C500.273 350.83 499.482 350.621 498.781 350.205C498.085 349.788 497.534 349.182 497.126 348.386C496.724 347.591 496.523 346.625 496.523 345.489C496.523 344.371 496.719 343.398 497.112 342.57C497.505 341.736 498.052 341.092 498.753 340.638C499.454 340.179 500.263 339.949 501.182 339.949C501.892 339.949 502.455 340.067 502.872 340.304C503.294 340.536 503.616 340.801 503.838 341.099C504.065 341.393 504.241 341.634 504.364 341.824H504.534V340.091H506.153V351.312C506.153 352.25 505.94 353.012 505.514 353.599C505.093 354.191 504.525 354.625 503.81 354.899C503.099 355.179 502.309 355.318 501.438 355.318ZM501.381 349.324C502.053 349.324 502.621 349.17 503.085 348.862C503.549 348.554 503.902 348.112 504.143 347.534C504.385 346.956 504.506 346.265 504.506 345.46C504.506 344.674 504.387 343.981 504.151 343.379C503.914 342.778 503.563 342.307 503.099 341.966C502.635 341.625 502.063 341.455 501.381 341.455C500.67 341.455 500.079 341.634 499.605 341.994C499.136 342.354 498.784 342.837 498.547 343.443C498.315 344.049 498.199 344.722 498.199 345.46C498.199 346.218 498.317 346.888 498.554 347.47C498.795 348.048 499.151 348.502 499.619 348.834C500.093 349.161 500.68 349.324 501.381 349.324Z" fill="#A29B9B"/>
<g clip-path="url(#clip0_4_50)">
<path d="M363.02 351.961L367.54 387.792L376.214 374.815L391.79 373.791L363.02 351.961Z" fill="black" stroke="black" stroke-width="2" stroke-linecap="round" stroke-linejoin="round"/>
<path d="M377.515 377.068L386 391.765" stroke="black" stroke-width="6" stroke-linecap="round" stroke-linejoin="round"/>
</g>
<defs>
<clipPath id="clip0_4_50">
<rect width="48" height="48" fill="white" transform="translate(358.423 344) rotate(15)"/>
</clipPath>
</defs>
</svg>
